<?xml version="1.0" encoding="UTF-8"?>
<svg xmlns="http://www.w3.org/2000/svg" xmlns:xlink="http://www.w3.org/1999/xlink" width="px" height="px" viewBox="0 0 256 256" version="1.1">
<g id="surface1">
<path style=" stroke:none;fill-rule:nonzero;fill:rgb(16.470588%,16.470588%,28.627451%);fill-opacity:1;" d="M 43.027344 3.871094 C 43.789062 3.867188 44.554688 3.867188 45.316406 3.863281 C 47.40625 3.859375 49.492188 3.859375 51.582031 3.863281 C 53.835938 3.863281 56.09375 3.859375 58.347656 3.855469 C 62.765625 3.847656 67.179688 3.847656 71.597656 3.847656 C 75.1875 3.851562 78.777344 3.847656 82.367188 3.847656 C 83.132812 3.847656 83.132812 3.847656 83.914062 3.847656 C 84.953125 3.84375 85.992188 3.84375 87.03125 3.84375 C 96.769531 3.839844 106.503906 3.839844 116.242188 3.84375 C 125.144531 3.84375 134.050781 3.839844 142.953125 3.832031 C 152.101562 3.820312 161.246094 3.816406 170.394531 3.816406 C 175.527344 3.820312 180.660156 3.816406 185.792969 3.8125 C 190.164062 3.804688 194.535156 3.804688 198.90625 3.808594 C 201.132812 3.8125 203.363281 3.8125 205.589844 3.808594 C 207.632812 3.800781 209.675781 3.804688 211.71875 3.8125 C 212.453125 3.8125 213.191406 3.8125 213.925781 3.808594 C 221.5625 3.769531 227.847656 5.234375 233.574219 10.492188 C 238.472656 15.816406 239.222656 21.722656 239.195312 28.652344 C 239.199219 29.429688 239.203125 30.207031 239.207031 30.984375 C 239.214844 33.109375 239.214844 35.238281 239.210938 37.363281 C 239.210938 39.660156 239.214844 41.957031 239.222656 44.253906 C 239.234375 48.75 239.234375 53.246094 239.234375 57.742188 C 239.234375 61.398438 239.234375 65.054688 239.238281 68.710938 C 239.242188 69.765625 239.242188 70.816406 239.242188 71.871094 C 239.242188 72.660156 239.242188 72.660156 239.246094 73.460938 C 239.253906 83.378906 239.253906 93.296875 239.25 103.214844 C 239.246094 112.28125 239.257812 121.347656 239.273438 130.414062 C 239.289062 139.726562 239.296875 149.042969 239.296875 158.359375 C 239.296875 163.585938 239.296875 168.8125 239.308594 174.039062 C 239.320312 178.492188 239.324219 182.941406 239.3125 187.394531 C 239.308594 189.664062 239.308594 191.929688 239.316406 194.199219 C 239.328125 196.28125 239.324219 198.363281 239.3125 200.441406 C 239.3125 201.191406 239.3125 201.941406 239.320312 202.691406 C 239.375 208.976562 238.164062 214.59375 234.003906 219.5 C 229.253906 224.226562 223.488281 226.558594 216.839844 226.558594 C 216.449219 226.554688 216.0625 226.550781 215.660156 226.546875 C 215.253906 226.546875 214.847656 226.546875 214.429688 226.546875 C 213.140625 226.542969 211.851562 226.539062 210.5625 226.53125 C 209.683594 226.527344 208.808594 226.527344 207.929688 226.523438 C 205.785156 226.519531 203.644531 226.511719 201.5 226.5 C 201.367188 226.796875 201.230469 227.089844 201.09375 227.394531 C 200.492188 228.511719 199.867188 229.28125 198.996094 230.195312 C 198.699219 230.507812 198.40625 230.816406 198.101562 231.140625 C 197.789062 231.464844 197.476562 231.789062 197.15625 232.125 C 196.515625 232.800781 195.875 233.480469 195.238281 234.15625 C 194.78125 234.640625 194.78125 234.640625 194.316406 235.128906 C 193.125 236.398438 191.984375 237.707031 190.851562 239.023438 C 189.335938 240.761719 187.769531 242.457031 186.210938 244.15625 C 185.15625 245.328125 184.136719 246.515625 183.125 247.71875 C 181.1875 249.949219 179.035156 251.796875 175.976562 252.101562 C 175.601562 252.109375 175.226562 252.117188 174.84375 252.125 C 174.472656 252.136719 174.105469 252.152344 173.726562 252.164062 C 170.863281 251.78125 168.980469 250.167969 167.03125 248.15625 C 166.597656 247.710938 166.167969 247.265625 165.722656 246.804688 C 164.421875 245.417969 163.160156 244.007812 161.921875 242.5625 C 160.804688 241.273438 159.652344 240.011719 158.5 238.75 C 157.058594 237.167969 155.625 235.582031 154.21875 233.96875 C 153.953125 233.675781 153.6875 233.386719 153.414062 233.085938 C 152.5 232 152.5 232 151.714844 230.734375 C 150.433594 228.898438 149.210938 227.339844 146.976562 226.710938 C 143.875 226.246094 140.738281 226.351562 137.609375 226.402344 C 136.59375 226.402344 135.578125 226.394531 134.566406 226.390625 C 131.910156 226.378906 129.253906 226.398438 126.597656 226.425781 C 123.882812 226.445312 121.167969 226.4375 118.453125 226.433594 C 113.136719 226.429688 107.816406 226.453125 102.5 226.5 C 102.511719 227.070312 102.527344 227.640625 102.539062 228.226562 C 102.585938 230.355469 102.613281 232.484375 102.636719 234.613281 C 102.648438 235.53125 102.667969 236.449219 102.6875 237.367188 C 102.71875 238.691406 102.734375 240.019531 102.746094 241.34375 C 102.757812 241.75 102.769531 242.15625 102.785156 242.574219 C 102.785156 245.597656 101.96875 247.6875 100 250 C 96.789062 252.550781 93.085938 252.285156 89.152344 252.246094 C 88.171875 252.25 88.171875 252.25 87.171875 252.25 C 85.796875 252.25 84.421875 252.246094 83.046875 252.234375 C 81.289062 252.21875 79.53125 252.21875 77.773438 252.226562 C 76.085938 252.230469 74.402344 252.222656 72.714844 252.214844 C 72.085938 252.21875 71.457031 252.21875 70.8125 252.222656 C 70.222656 252.214844 69.636719 252.207031 69.03125 252.203125 C 68.515625 252.199219 68.003906 252.195312 67.472656 252.195312 C 64.898438 251.855469 62.972656 250.75 61.34375 248.75 C 61.097656 248.457031 60.851562 248.164062 60.601562 247.859375 C 59.171875 245.8125 59.4375 243.582031 59.453125 241.195312 C 59.453125 240.777344 59.453125 240.359375 59.453125 239.925781 C 59.457031 238.585938 59.460938 237.246094 59.46875 235.90625 C 59.472656 234.996094 59.472656 234.089844 59.476562 233.179688 C 59.480469 230.953125 59.488281 228.726562 59.5 226.5 C 59.21875 226.503906 58.9375 226.507812 58.648438 226.511719 C 55.695312 226.542969 52.742188 226.566406 49.789062 226.582031 C 48.691406 226.589844 47.589844 226.601562 46.492188 226.613281 C 38.398438 226.707031 31.878906 226.753906 25 222 C 24.554688 221.710938 24.113281 221.421875 23.65625 221.125 C 19.378906 216.964844 16.960938 211.863281 16.746094 205.898438 C 16.726562 204.507812 16.734375 203.117188 16.742188 201.726562 C 16.738281 200.949219 16.738281 200.171875 16.730469 199.394531 C 16.722656 197.269531 16.726562 195.144531 16.730469 193.019531 C 16.734375 190.726562 16.726562 188.429688 16.71875 186.132812 C 16.710938 181.640625 16.710938 177.148438 16.714844 172.652344 C 16.714844 169 16.714844 165.347656 16.714844 161.695312 C 16.710938 160.914062 16.710938 160.914062 16.710938 160.117188 C 16.710938 159.058594 16.710938 158.003906 16.707031 156.945312 C 16.699219 147.035156 16.703125 137.125 16.714844 127.210938 C 16.71875 118.152344 16.714844 109.09375 16.699219 100.035156 C 16.683594 90.722656 16.679688 81.410156 16.683594 72.101562 C 16.683594 71.046875 16.683594 69.992188 16.683594 68.9375 C 16.683594 68.421875 16.683594 67.902344 16.6875 67.367188 C 16.6875 63.722656 16.683594 60.074219 16.675781 56.429688 C 16.664062 51.980469 16.664062 47.535156 16.675781 43.085938 C 16.683594 40.820312 16.683594 38.554688 16.675781 36.285156 C 16.667969 34.207031 16.667969 32.128906 16.683594 30.050781 C 16.683594 29.300781 16.683594 28.550781 16.675781 27.804688 C 16.621094 20.984375 18.125 14.996094 23 10 C 28.976562 4.644531 35.234375 3.847656 43.027344 3.871094 Z M 43.027344 3.871094 "/>
<path style=" stroke:none;fill-rule:nonzero;fill:rgb(26.27451%,26.27451%,46.27451%);fill-opacity:1;" d="M 43.027344 3.871094 C 43.789062 3.867188 44.554688 3.867188 45.316406 3.863281 C 47.40625 3.859375 49.492188 3.859375 51.582031 3.863281 C 53.835938 3.863281 56.09375 3.859375 58.347656 3.855469 C 62.765625 3.847656 67.179688 3.847656 71.597656 3.847656 C 75.1875 3.851562 78.777344 3.847656 82.367188 3.847656 C 83.132812 3.847656 83.132812 3.847656 83.914062 3.847656 C 84.953125 3.84375 85.992188 3.84375 87.03125 3.84375 C 96.769531 3.839844 106.503906 3.839844 116.242188 3.84375 C 125.144531 3.84375 134.050781 3.839844 142.953125 3.832031 C 152.101562 3.820312 161.246094 3.816406 170.394531 3.816406 C 175.527344 3.820312 180.660156 3.816406 185.792969 3.8125 C 190.164062 3.804688 194.535156 3.804688 198.90625 3.808594 C 201.132812 3.8125 203.363281 3.8125 205.589844 3.808594 C 207.632812 3.800781 209.675781 3.804688 211.71875 3.8125 C 212.453125 3.8125 213.191406 3.8125 213.925781 3.808594 C 221.5625 3.769531 227.847656 5.234375 233.574219 10.492188 C 240.851562 18.402344 239 27.914062 239 38.5 C 165.738281 38.5 92.480469 38.5 17 38.5 C 17 16.148438 17 16.148438 23 10 C 28.976562 4.644531 35.234375 3.847656 43.027344 3.871094 Z M 43.027344 3.871094 "/>
<path style=" stroke:none;fill-rule:nonzero;fill:rgb(99.607843%,29.803922%,29.803922%);fill-opacity:1;" d="M 166.40625 149.25 C 167.078125 149.25 167.75 149.25 168.421875 149.25 C 169.824219 149.25 171.226562 149.253906 172.628906 149.265625 C 174.421875 149.28125 176.214844 149.28125 178.003906 149.273438 C 179.390625 149.269531 180.773438 149.273438 182.160156 149.28125 C 183.140625 149.28125 184.121094 149.28125 185.101562 149.277344 C 186 149.289062 186 149.289062 186.914062 149.296875 C 187.703125 149.300781 187.703125 149.300781 188.503906 149.304688 C 190.875 149.613281 192.894531 150.558594 194.375 152.46875 C 196.355469 155.164062 196.644531 156.976562 196.613281 160.3125 C 196.613281 160.746094 196.613281 161.179688 196.613281 161.628906 C 196.613281 163.0625 196.605469 164.496094 196.597656 165.929688 C 196.597656 166.925781 196.59375 167.917969 196.59375 168.914062 C 196.589844 171.53125 196.578125 174.148438 196.570312 176.765625 C 196.558594 179.4375 196.554688 182.109375 196.546875 184.78125 C 196.539062 190.019531 196.519531 195.261719 196.5 200.5 C 197.140625 200.476562 197.777344 200.453125 198.4375 200.429688 C 199.292969 200.410156 200.144531 200.394531 201 200.375 C 201.417969 200.359375 201.839844 200.339844 202.273438 200.324219 C 205.578125 200.273438 208.28125 200.910156 210.761719 203.207031 C 212.554688 205.234375 213.386719 206.996094 213.6875 209.65625 C 213.226562 214.171875 210.378906 216.851562 207.40625 219.988281 C 205.796875 221.691406 204.355469 223.511719 202.910156 225.351562 C 200.335938 228.597656 197.492188 231.613281 194.703125 234.671875 C 193.707031 235.773438 192.722656 236.878906 191.75 238 C 189.9375 240.085938 188.074219 242.121094 186.210938 244.15625 C 185.15625 245.328125 184.136719 246.515625 183.125 247.71875 C 181.1875 249.949219 179.035156 251.796875 175.976562 252.101562 C 175.601562 252.109375 175.226562 252.117188 174.84375 252.125 C 174.289062 252.144531 174.289062 252.144531 173.726562 252.164062 C 170.863281 251.78125 168.980469 250.167969 167.03125 248.15625 C 166.597656 247.710938 166.167969 247.265625 165.71875 246.804688 C 164.421875 245.417969 163.160156 244.007812 161.921875 242.5625 C 160.804688 241.273438 159.652344 240.011719 158.5 238.75 C 156.773438 236.855469 155.070312 234.949219 153.390625 233.015625 C 152.347656 231.828125 151.28125 230.664062 150.21875 229.5 C 148.929688 228.074219 147.710938 226.65625 146.59375 225.09375 C 144.980469 222.855469 143.078125 220.890625 141.15625 218.914062 C 138.335938 215.949219 136.285156 212.84375 136.363281 208.59375 C 136.65625 206.25 137.617188 204.308594 139.359375 202.710938 C 141.476562 201.152344 143.171875 200.433594 145.835938 200.453125 C 146.28125 200.453125 146.726562 200.453125 147.1875 200.457031 C 147.882812 200.460938 147.882812 200.460938 148.59375 200.46875 C 149.0625 200.472656 149.535156 200.472656 150.019531 200.476562 C 151.179688 200.480469 152.339844 200.488281 153.5 200.5 C 153.492188 199.667969 153.492188 199.667969 153.484375 198.820312 C 153.433594 193.582031 153.394531 188.34375 153.371094 183.105469 C 153.359375 180.414062 153.339844 177.71875 153.3125 175.027344 C 153.285156 172.429688 153.269531 169.828125 153.261719 167.226562 C 153.257812 166.238281 153.25 165.246094 153.234375 164.257812 C 153.21875 162.867188 153.214844 161.476562 153.214844 160.085938 C 153.207031 159.679688 153.199219 159.273438 153.1875 158.851562 C 153.214844 155.847656 154.101562 153.828125 156 151.5 C 159.121094 148.886719 162.476562 149.21875 166.40625 149.25 Z M 166.40625 149.25 "/>
<path style=" stroke:none;fill-rule:nonzero;fill:rgb(14.509804%,89.411765%,44.313725%);fill-opacity:1;" d="M 85.0625 149.96875 C 88.324219 152.308594 90.957031 155.386719 93.5625 158.417969 C 94.6875 159.714844 95.84375 160.980469 97 162.25 C 98.714844 164.132812 100.40625 166.03125 102.078125 167.953125 C 103.203125 169.230469 104.351562 170.492188 105.5 171.75 C 107.214844 173.628906 108.90625 175.527344 110.574219 177.453125 C 111.71875 178.746094 112.890625 180.011719 114.0625 181.28125 C 119.71875 187.488281 119.71875 187.488281 119.636719 191.875 C 119.339844 194.332031 118.445312 196.578125 116.65625 198.320312 C 114.417969 199.992188 112.523438 200.566406 109.726562 200.546875 C 109.304688 200.546875 108.882812 200.546875 108.445312 200.542969 C 108.011719 200.539062 107.574219 200.535156 107.125 200.53125 C 106.679688 200.527344 106.238281 200.527344 105.78125 200.523438 C 104.6875 200.519531 103.59375 200.511719 102.5 200.5 C 102.503906 201.0625 102.511719 201.621094 102.515625 202.199219 C 102.566406 207.496094 102.605469 212.792969 102.628906 218.089844 C 102.640625 220.8125 102.660156 223.535156 102.6875 226.257812 C 102.714844 228.886719 102.730469 231.515625 102.738281 234.144531 C 102.742188 235.148438 102.75 236.148438 102.765625 237.152344 C 102.78125 238.558594 102.785156 239.960938 102.785156 241.367188 C 102.792969 241.78125 102.800781 242.191406 102.8125 242.613281 C 102.785156 245.613281 101.945312 247.703125 100 250 C 96.789062 252.550781 93.085938 252.285156 89.152344 252.25 C 88.171875 252.25 88.171875 252.25 87.171875 252.25 C 85.796875 252.25 84.421875 252.246094 83.046875 252.234375 C 81.289062 252.21875 79.53125 252.21875 77.773438 252.226562 C 76.085938 252.230469 74.402344 252.222656 72.714844 252.21875 C 72.085938 252.21875 71.457031 252.21875 70.8125 252.222656 C 70.222656 252.214844 69.636719 252.207031 69.03125 252.203125 C 68.515625 252.199219 68.003906 252.195312 67.472656 252.195312 C 64.898438 251.855469 62.972656 250.75 61.34375 248.75 C 61.097656 248.457031 60.851562 248.164062 60.601562 247.859375 C 59.171875 245.8125 59.433594 243.582031 59.441406 241.199219 C 59.441406 240.757812 59.441406 240.320312 59.441406 239.867188 C 59.445312 238.414062 59.445312 236.960938 59.453125 235.507812 C 59.453125 234.503906 59.453125 233.496094 59.453125 232.488281 C 59.457031 229.839844 59.460938 227.1875 59.464844 224.535156 C 59.472656 221.832031 59.472656 219.128906 59.476562 216.421875 C 59.480469 211.113281 59.488281 205.808594 59.5 200.5 C 58.855469 200.515625 58.210938 200.535156 57.546875 200.554688 C 56.6875 200.566406 55.828125 200.582031 54.96875 200.59375 C 54.546875 200.605469 54.121094 200.617188 53.683594 200.632812 C 50.519531 200.667969 48.027344 200.308594 45.539062 198.175781 C 43.261719 195.34375 42.117188 193.257812 42.5 189.5 C 43.882812 185.488281 46.917969 182.746094 49.796875 179.742188 C 50.671875 178.816406 51.511719 177.867188 52.34375 176.90625 C 54.742188 174.136719 57.210938 171.429688 59.664062 168.710938 C 61.363281 166.828125 63.054688 164.945312 64.71875 163.03125 C 66.542969 160.9375 68.414062 158.890625 70.289062 156.84375 C 71.34375 155.671875 72.363281 154.484375 73.375 153.28125 C 76.765625 149.460938 80.113281 148.484375 85.0625 149.96875 Z M 85.0625 149.96875 "/>
<path style=" stroke:none;fill-rule:nonzero;fill:rgb(98.431373%,98.431373%,98.823529%);fill-opacity:1;" d="M 101.875 71.75 C 105.539062 75.351562 106.8125 79.6875 106.890625 84.703125 C 106.890625 85.875 106.878906 87.046875 106.863281 88.21875 C 106.863281 89.046875 106.863281 89.875 106.863281 90.699219 C 106.863281 92.421875 106.855469 94.144531 106.835938 95.863281 C 106.8125 98.070312 106.8125 100.273438 106.820312 102.476562 C 106.824219 104.179688 106.816406 105.882812 106.804688 107.585938 C 106.800781 108.398438 106.800781 109.214844 106.804688 110.027344 C 106.804688 111.160156 106.789062 112.292969 106.773438 113.425781 C 106.769531 114.070312 106.765625 114.714844 106.761719 115.375 C 106.457031 117.28125 106.03125 117.863281 104.5 119 C 102.78125 119.5 102.78125 119.5 101 119.5 C 99.597656 118.617188 98.742188 117.984375 98 116.5 C 97.957031 115.113281 97.941406 113.742188 97.953125 112.355469 C 97.953125 111.945312 97.953125 111.535156 97.953125 111.117188 C 97.957031 109.804688 97.960938 108.496094 97.96875 107.1875 C 97.972656 106.300781 97.972656 105.414062 97.976562 104.527344 C 97.980469 102.351562 97.992188 100.175781 98 98 C 93.875 98 89.75 98 85.5 98 C 85.523438 99.304688 85.546875 100.613281 85.570312 101.960938 C 85.585938 103.226562 85.597656 104.496094 85.609375 105.765625 C 85.621094 106.648438 85.632812 107.527344 85.652344 108.40625 C 85.675781 109.675781 85.6875 110.941406 85.695312 112.210938 C 85.710938 112.796875 85.710938 112.796875 85.726562 113.394531 C 85.726562 115.289062 85.582031 116.375 84.550781 117.988281 C 83.304688 119.1875 82.804688 119.460938 81.09375 119.6875 C 78.921875 119.433594 78.347656 118.691406 77 117 C 76.6875 115.285156 76.6875 115.285156 76.683594 113.292969 C 76.679688 112.925781 76.675781 112.5625 76.671875 112.1875 C 76.664062 110.984375 76.675781 109.785156 76.6875 108.585938 C 76.683594 107.746094 76.683594 106.90625 76.683594 106.066406 C 76.679688 104.308594 76.6875 102.554688 76.703125 100.796875 C 76.71875 98.550781 76.714844 96.308594 76.707031 94.0625 C 76.699219 92.332031 76.707031 90.597656 76.714844 88.863281 C 76.714844 88.039062 76.714844 87.210938 76.710938 86.382812 C 76.691406 78.433594 76.691406 78.433594 79 75 C 79.234375 74.648438 79.46875 74.292969 79.710938 73.929688 C 85.46875 67.207031 94.738281 66.480469 101.875 71.75 Z M 101.875 71.75 "/>
<path style=" stroke:none;fill-rule:nonzero;fill:rgb(98.039216%,98.039216%,98.039216%);fill-opacity:1;" d="M 124.175781 68.316406 C 125.265625 68.3125 126.355469 68.292969 127.445312 68.277344 C 132.136719 68.238281 135.824219 68.859375 139.875 71.34375 C 142.988281 74.542969 145.140625 78.101562 145.15625 82.625 C 145.039062 87.78125 143.789062 90.652344 140.210938 94.414062 C 137.632812 96.730469 134.652344 98.070312 131.167969 98.050781 C 130.71875 98.046875 130.273438 98.046875 129.8125 98.042969 C 129.117188 98.039062 129.117188 98.039062 128.40625 98.03125 C 127.9375 98.027344 127.464844 98.027344 126.980469 98.023438 C 125.820312 98.019531 124.660156 98.011719 123.5 98 C 123.511719 98.5625 123.527344 99.125 123.539062 99.703125 C 123.585938 101.796875 123.613281 103.886719 123.636719 105.980469 C 123.648438 106.886719 123.667969 107.789062 123.6875 108.695312 C 123.71875 109.996094 123.734375 111.296875 123.746094 112.601562 C 123.757812 113.003906 123.769531 113.40625 123.785156 113.820312 C 123.785156 115.957031 123.6875 116.757812 122.328125 118.503906 C 121 119.5 121 119.5 119.5 119.8125 C 117.519531 119.398438 116.777344 118.53125 115.5 117 C 114.691406 115.382812 114.925781 113.609375 114.925781 111.832031 C 114.925781 111.402344 114.925781 110.972656 114.921875 110.527344 C 114.917969 109.097656 114.917969 107.667969 114.917969 106.238281 C 114.914062 105.246094 114.914062 104.253906 114.910156 103.265625 C 114.90625 101.183594 114.90625 99.101562 114.90625 97.023438 C 114.90625 94.355469 114.902344 91.6875 114.890625 89.019531 C 114.886719 86.96875 114.886719 84.921875 114.886719 82.871094 C 114.886719 81.890625 114.882812 80.90625 114.878906 79.921875 C 114.875 78.546875 114.875 77.171875 114.878906 75.796875 C 114.875 75.390625 114.871094 74.980469 114.871094 74.5625 C 114.890625 71.003906 114.890625 71.003906 116 69.5 C 118.441406 67.871094 121.316406 68.3125 124.175781 68.316406 Z M 124.175781 68.316406 "/>
<path style=" stroke:none;fill-rule:nonzero;fill:rgb(98.823529%,98.823529%,98.823529%);fill-opacity:1;" d="M 154.394531 68.234375 C 154.976562 68.226562 155.558594 68.21875 156.160156 68.210938 C 156.789062 68.210938 157.414062 68.214844 158.0625 68.21875 C 159.03125 68.210938 159.03125 68.210938 160.019531 68.207031 C 161.382812 68.203125 162.75 68.203125 164.117188 68.210938 C 165.863281 68.21875 167.613281 68.207031 169.359375 68.191406 C 171.03125 68.175781 172.703125 68.183594 174.375 68.1875 C 175.3125 68.175781 175.3125 68.175781 176.269531 68.164062 C 181.097656 68.21875 181.097656 68.21875 182.644531 69.675781 C 183.707031 71.320312 183.902344 72.078125 183.5 74 C 182.675781 74.824219 181.851562 75.648438 181 76.5 C 177.535156 76.5 174.070312 76.5 170.5 76.5 C 170.5 87.886719 170.5 99.269531 170.5 111 C 173.800781 111 177.101562 111 180.5 111 C 182.5 112 182.5 112 183.5 113.5 C 183.753906 115.449219 183.664062 116.253906 182.5625 117.90625 C 181.394531 119.105469 180.96875 119.46875 179.316406 119.578125 C 178.816406 119.582031 178.320312 119.589844 177.808594 119.597656 C 176.964844 119.609375 176.964844 119.609375 176.105469 119.621094 C 173.53125 119.644531 170.957031 119.664062 168.386719 119.675781 C 167.027344 119.683594 165.667969 119.695312 164.308594 119.714844 C 162.355469 119.746094 160.398438 119.753906 158.445312 119.761719 C 157.835938 119.773438 157.230469 119.785156 156.601562 119.796875 C 151.910156 119.785156 151.910156 119.785156 150.367188 118.34375 C 149.214844 116.554688 149.128906 115.589844 149.5 113.5 C 150.324219 112.675781 151.148438 111.851562 152 111 C 155.300781 111 158.601562 111 162 111 C 162 99.78125 162 88.558594 162 77 C 158.863281 77 155.730469 77 152.5 77 C 149.5 74.5 149.5 74.5 149.136719 73.453125 C 149.222656 71.808594 149.335938 70.71875 150.339844 69.394531 C 151.792969 68.273438 152.574219 68.246094 154.394531 68.234375 Z M 154.394531 68.234375 "/>
<path style=" stroke:none;fill-rule:nonzero;fill:rgb(16.470588%,16.470588%,28.627451%);fill-opacity:1;" d="M 133.253906 16.675781 C 133.949219 16.671875 134.644531 16.667969 135.339844 16.664062 C 137.222656 16.652344 139.105469 16.65625 140.992188 16.664062 C 142.964844 16.671875 144.9375 16.664062 146.914062 16.660156 C 150.226562 16.65625 153.542969 16.664062 156.859375 16.675781 C 160.6875 16.6875 164.515625 16.683594 168.347656 16.667969 C 171.636719 16.65625 174.925781 16.65625 178.21875 16.664062 C 180.183594 16.667969 182.144531 16.667969 184.109375 16.660156 C 185.957031 16.652344 187.804688 16.65625 189.652344 16.671875 C 190.652344 16.675781 191.648438 16.667969 192.648438 16.660156 C 197.546875 16.71875 197.546875 16.71875 199.40625 18.160156 C 200.5 19.5 200.5 19.5 200.84375 21.25 C 200.515625 22.921875 200.214844 23.820312 198.964844 24.984375 C 196.628906 26.230469 193.722656 25.839844 191.136719 25.816406 C 190.433594 25.816406 189.726562 25.820312 189.019531 25.828125 C 187.105469 25.835938 185.1875 25.828125 183.273438 25.820312 C 181.269531 25.8125 179.261719 25.816406 177.257812 25.816406 C 173.890625 25.820312 170.527344 25.8125 167.160156 25.796875 C 163.265625 25.78125 159.375 25.78125 155.484375 25.792969 C 151.738281 25.800781 147.996094 25.796875 144.25 25.785156 C 142.65625 25.785156 141.0625 25.785156 139.46875 25.789062 C 137.59375 25.792969 135.71875 25.785156 133.839844 25.773438 C 133.152344 25.769531 132.464844 25.769531 131.777344 25.773438 C 130.835938 25.777344 129.898438 25.765625 128.957031 25.757812 C 128.429688 25.757812 127.90625 25.753906 127.363281 25.753906 C 125.636719 25.433594 125.046875 24.890625 124 23.5 C 123.53125 20.21875 123.53125 20.21875 124.847656 18.203125 C 127.0625 16.085938 130.398438 16.65625 133.253906 16.675781 Z M 133.253906 16.675781 "/>
<path style=" stroke:none;fill-rule:nonzero;fill:rgb(16.862745%,16.862745%,29.019608%);fill-opacity:1;" d="M 94 77 C 96.144531 77.867188 97.023438 78.929688 98 81 C 98.175781 82.476562 98.140625 83.921875 98.09375 85.40625 C 98.0625 86.757812 98.03125 88.109375 98 89.5 C 93.875 89.5 89.75 89.5 85.5 89.5 C 85.457031 88.160156 85.417969 86.820312 85.375 85.4375 C 85.355469 85.019531 85.339844 84.605469 85.320312 84.175781 C 85.28125 81.546875 85.75 80.074219 87.5 78 C 89.628906 76.582031 91.5 76.746094 94 77 Z M 94 77 "/>
<path style=" stroke:none;fill-rule:nonzero;fill:rgb(16.862745%,16.862745%,29.019608%);fill-opacity:1;" d="M 124 77 C 132.636719 76.597656 132.636719 76.597656 134.75 78.4375 C 136.007812 79.824219 136.476562 80.71875 136.625 82.625 C 136.464844 85.011719 135.769531 86.570312 134.25 88.40625 C 132.386719 89.882812 130.148438 89.554688 127.90625 89.53125 C 126.617188 89.519531 125.328125 89.511719 124 89.5 C 124 85.375 124 81.25 124 77 Z M 124 77 "/>
<path style=" stroke:none;fill-rule:nonzero;fill:rgb(97.647059%,29.803922%,30.588235%);fill-opacity:1;" d="M 40.5 16.75 C 41.097656 16.746094 41.695312 16.738281 42.3125 16.734375 C 44.289062 17.046875 45.117188 17.574219 46.5 19 C 46.96875 20.746094 47.1875 21.921875 46.625 23.65625 C 46 24.5 46 24.5 44.5 25.5 C 43.160156 25.652344 41.902344 25.730469 40.5625 25.75 C 40.207031 25.769531 39.855469 25.792969 39.492188 25.8125 C 38.042969 25.835938 36.863281 25.78125 35.691406 24.878906 C 34.410156 23.429688 34.003906 22.640625 33.9375 20.6875 C 35.046875 17.359375 37.179688 16.722656 40.5 16.75 Z M 40.5 16.75 "/>
<path style=" stroke:none;fill-rule:nonzero;fill:rgb(14.509804%,88.235294%,44.705882%);fill-opacity:1;" d="M 86.5 17 C 88.183594 17.613281 88.464844 17.945312 89.5 19.5 C 89.777344 21.636719 89.796875 22.609375 88.46875 24.34375 C 86.617188 25.800781 85.585938 25.835938 83.25 25.8125 C 82.28125 25.820312 82.28125 25.820312 81.296875 25.832031 C 79.09375 25.425781 78.355469 24.753906 77 23 C 76.625 20.898438 76.78125 19.898438 77.8125 18.03125 C 80.511719 16.382812 83.414062 16.652344 86.5 17 Z M 86.5 17 "/>
<path style=" stroke:none;fill-rule:nonzero;fill:rgb(95.294118%,72.156863%,15.294118%);fill-opacity:1;" d="M 65 17 C 67.316406 18.132812 67.316406 18.132812 68 19.5 C 68.28125 22.394531 68.28125 22.394531 68 23.5 C 66.59375 25.03125 65.757812 25.464844 63.6875 25.75 C 63.035156 25.738281 62.386719 25.730469 61.71875 25.71875 C 60.742188 25.71875 60.742188 25.71875 59.75 25.71875 C 57.949219 25.492188 57.214844 25.324219 56 24 C 55.433594 22.496094 55.359375 21.09375 55.5 19.5 C 57.308594 15.953125 61.527344 16.515625 65 17 Z M 65 17 "/>
</g>
</svg>
