<?xml version="1.0" encoding="UTF-8"?>
<svg version="1.1" xmlns="http://www.w3.org/2000/svg" width="512" height="512">
<path d="M0 0 C1.52610591 -0.00302375 3.0522103 -0.00691435 4.57831204 -0.01159257 C8.75534976 -0.02185247 12.93230145 -0.01969588 17.10934615 -0.01541197 C21.62069732 -0.01294111 26.13202797 -0.02196338 30.64337158 -0.02944946 C39.47512428 -0.04218837 48.30684656 -0.04399117 57.13860689 -0.0416492 C64.31841232 -0.03986501 71.49820852 -0.04161785 78.67801285 -0.04587364 C80.21174529 -0.04676643 80.21174529 -0.04676643 81.77646223 -0.04767724 C83.85375539 -0.04888902 85.93104854 -0.05010315 88.00834168 -0.05131962 C107.48216913 -0.062192 126.95597926 -0.06003407 146.42980768 -0.05393478 C164.23710651 -0.04876565 182.04435064 -0.06002148 199.85163866 -0.07903299 C218.14575263 -0.09841421 236.43984073 -0.10666691 254.73396504 -0.10290974 C265.00088306 -0.10099816 275.26775452 -0.10348112 285.53466415 -0.11762428 C294.27480925 -0.12954263 303.01487912 -0.13093784 311.75502525 -0.11883412 C316.21208592 -0.1129487 320.66900901 -0.11183669 325.12606049 -0.12383652 C329.21086517 -0.13470612 333.2954176 -0.13157923 337.38021053 -0.11757483 C338.85320946 -0.11493087 340.32622823 -0.11728495 341.79920767 -0.1253107 C357.06875239 -0.20269521 369.63870065 2.72969625 381.09353638 13.24897766 C390.89181473 23.89478643 392.39367525 35.70282037 392.33950806 49.56788635 C392.34440192 51.12144306 392.35059402 52.67499612 392.35796595 54.22854304 C392.37432595 58.48155935 392.37205558 62.7343898 392.36659098 66.98742652 C392.36391589 71.58062992 392.37846162 76.17378432 392.39068604 80.76696777 C392.41172253 89.75982141 392.41628189 98.75261054 392.41449815 107.74548587 C392.41318954 115.05733433 392.41699973 122.3691627 392.42442322 129.68100739 C392.42652246 131.78873912 392.42862006 133.89647086 392.43071604 136.0042026 C392.43228133 137.57792526 392.43228133 137.57792526 392.43387824 139.1834403 C392.4527737 159.01834148 392.45173265 178.85320566 392.44490892 198.68811211 C392.43933492 216.82065569 392.46015405 234.95305791 392.49326938 253.08556846 C392.52703002 271.71644278 392.54217169 290.34724943 392.53755236 308.9781549 C392.53530995 319.43296557 392.54051732 329.88764562 392.56544495 340.34243011 C392.58648878 349.24395421 392.59001954 358.14527608 392.57114536 367.04680857 C392.56200625 371.58521424 392.56078826 376.12324317 392.58150101 380.66161919 C392.60028321 384.82316096 392.59562719 388.98401934 392.57295519 393.14553568 C392.56878759 394.6441432 392.57290704 396.14280386 392.58655113 397.64135507 C392.69313217 410.21192029 390.27321578 421.44952496 381.95291138 431.26460266 C372.45064725 440.7114061 360.91964413 445.37534941 347.62408447 445.37399292 C346.84572235 445.36883163 346.06736023 445.36367035 345.26541138 445.35835266 C344.4526474 445.35693771 343.63988342 445.35552277 342.80249023 445.35406494 C340.22498786 445.34849976 337.64757467 445.33595381 335.07009888 445.32319641 C333.3148918 445.31817691 331.55968336 445.31361479 329.80447388 445.30952454 C325.51798156 445.29854175 321.2315553 445.28130133 316.94509888 445.26069641 C316.67721558 445.85076477 316.40933228 446.44083313 316.1333313 447.04878235 C314.93336405 449.28254099 313.67897875 450.82343066 311.93338013 452.65132141 C311.3439563 453.27426086 310.75453247 453.89720032 310.14724731 454.53901672 C309.52366333 455.18967102 308.90007935 455.84032532 308.25759888 456.51069641 C306.9767615 457.86402181 305.69680244 459.21817906 304.41775513 460.57319641 C303.50534058 461.53805969 303.50534058 461.53805969 302.57449341 462.52241516 C300.19645948 465.05936475 297.91640232 467.67281868 295.64822388 470.30757141 C292.61542265 473.78555447 289.48265513 477.17345693 286.36697388 480.57710266 C284.25858373 482.91333497 282.22123649 485.29103734 280.19509888 487.69819641 C276.32239843 492.15545541 272.01781205 495.85730387 265.89431763 496.46382141 C265.14795044 496.47929016 264.40158325 496.49475891 263.63259888 496.51069641 C262.89396606 496.53647766 262.15533325 496.56225891 261.39431763 496.58882141 C255.67252379 495.8222653 251.90762795 492.59964457 248.00759888 488.57319641 C247.14263794 487.68116516 246.277677 486.78913391 245.38650513 485.87007141 C242.78920994 483.09408232 240.26168793 480.27652561 237.78884888 477.38960266 C235.55110698 474.80576933 233.25024013 472.28454836 230.94509888 469.76069641 C228.06089788 466.59808084 225.19332412 463.42629153 222.38259888 460.19819641 C221.85113754 459.61528839 221.31967621 459.03238037 220.77210999 458.43180847 C218.94509888 456.26069641 218.94509888 456.26069641 217.37138367 453.73069763 C214.81164365 450.06019825 212.37028691 446.94272552 207.90128708 445.68592072 C201.69246 444.75305538 195.41961217 444.96629626 189.15994263 445.06538391 C187.13255053 445.06159297 185.10516231 445.05339775 183.07780457 445.04100037 C177.76541446 445.02026083 172.45509055 445.05901297 167.14297485 445.11048889 C161.71306055 445.15247015 156.28332589 445.13773506 150.853302 445.12788391 C140.21665253 445.11689011 129.58132246 445.16879336 118.94509888 445.26069641 C118.97128296 446.40022766 118.99746704 447.53975891 119.02444458 448.71382141 C119.11542999 452.97029227 119.17252245 457.22667842 119.21975708 461.48384094 C119.24479177 463.3209024 119.27883033 465.15786534 119.32229614 466.99458313 C119.38343924 469.64603568 119.41141845 472.29616375 119.43338013 474.94819641 C119.45918655 475.75998352 119.48499298 476.57177063 119.51158142 477.40815735 C119.51450732 483.45283296 117.87906087 487.63242327 113.94509888 492.26069641 C107.52277154 497.36209993 100.11455852 496.82734169 92.24978638 496.75679016 C90.29046677 496.75897301 90.29046677 496.75897301 88.29156494 496.76119995 C85.53963819 496.76257742 82.78823678 496.75013386 80.03640747 496.72724915 C76.52149583 496.69880937 73.00745196 496.70162533 69.49247551 496.71433926 C66.1198226 496.72298984 62.74742466 496.70784446 59.37478638 496.69429016 C58.11842377 496.6972258 56.86206116 496.70016144 55.56762695 496.70318604 C54.39265656 496.69050186 53.21768616 496.67781769 52.0071106 496.66474915 C50.97867035 496.65934616 49.9502301 496.65394318 48.890625 496.64837646 C43.74569543 495.97121847 39.88688068 493.76056838 36.63259888 489.76069641 C36.14146606 489.17288391 35.65033325 488.58507141 35.14431763 487.97944641 C32.28782941 483.88545679 32.81727912 479.42244444 32.84744263 474.65522766 C32.84885757 473.8160228 32.85027252 472.97681793 32.85173035 472.11218262 C32.85732672 469.43248425 32.86987853 466.75286951 32.88259888 464.07319641 C32.88761435 462.25614033 32.89217717 460.43908293 32.89627075 458.62202454 C32.90729497 454.16821628 32.9245571 449.71447053 32.94509888 445.26069641 C32.38292664 445.26735825 31.82075439 445.27402008 31.24154663 445.28088379 C25.3356606 445.34778797 19.42988402 445.39272296 13.52371216 445.42549133 C11.32607645 445.44048181 9.12847016 445.46088108 6.93093872 445.48701477 C-9.26088404 445.67460745 -22.29513056 445.76513052 -36.05490112 436.26069641 C-36.94177612 435.68319641 -37.82865112 435.10569641 -38.74240112 434.51069641 C-47.29514701 426.18910582 -52.13437268 415.9896075 -52.561059 404.05573463 C-52.5985949 401.27427137 -52.58632752 398.49458513 -52.56956482 395.71299744 C-52.57489816 394.15771242 -52.58196836 392.60243256 -52.59061188 391.04716241 C-52.60916205 386.79860786 -52.6029607 382.5504037 -52.59245884 378.30183506 C-52.58544504 373.71002267 -52.60148132 369.11828069 -52.61445618 364.52648926 C-52.63606536 355.54057188 -52.63597712 346.55478129 -52.62783063 337.56884648 C-52.62152294 330.26276221 -52.62267473 322.95671484 -52.62910271 315.65063095 C-52.63045519 314.08902985 -52.63045519 314.08902985 -52.631835 312.49588125 C-52.63368626 310.38074362 -52.63554882 308.265606 -52.63742255 306.15046839 C-52.65399047 286.32889678 -52.64529058 266.50739641 -52.62843698 246.68582909 C-52.61374285 228.56634143 -52.62836619 210.44701964 -52.65720714 192.32755335 C-52.68662623 173.70564989 -52.69756596 155.08382292 -52.68802494 136.46189725 C-52.68700243 134.35406265 -52.68600781 132.24622803 -52.68504143 130.1383934 C-52.68456504 129.10139795 -52.68408865 128.06440251 -52.68359782 126.99598295 C-52.68143691 119.70323643 -52.69122064 112.41056259 -52.70581245 105.11783218 C-52.72336081 96.22366755 -52.72318257 87.32971428 -52.7004608 78.43555786 C-52.68934105 73.90119482 -52.68610447 69.36720382 -52.70476151 64.83285713 C-52.72164838 60.67508613 -52.71510531 56.51800929 -52.69054472 52.36028259 C-52.68568777 50.86308477 -52.68910461 49.36583008 -52.70203216 47.86868019 C-52.81119707 34.23301013 -49.80814505 22.25675969 -40.05490112 12.26069641 C-28.09924817 1.55342489 -15.58619725 -0.04385624 0 0 Z " fill="#2A2A49" transform="translate(86.05490112304688,7.7393035888671875)"/>
<path d="M0 0 C1.52610591 -0.00302375 3.0522103 -0.00691435 4.57831204 -0.01159257 C8.75534976 -0.02185247 12.93230145 -0.01969588 17.10934615 -0.01541197 C21.62069732 -0.01294111 26.13202797 -0.02196338 30.64337158 -0.02944946 C39.47512428 -0.04218837 48.30684656 -0.04399117 57.13860689 -0.0416492 C64.31841232 -0.03986501 71.49820852 -0.04161785 78.67801285 -0.04587364 C80.21174529 -0.04676643 80.21174529 -0.04676643 81.77646223 -0.04767724 C83.85375539 -0.04888902 85.93104854 -0.05010315 88.00834168 -0.05131962 C107.48216913 -0.062192 126.95597926 -0.06003407 146.42980768 -0.05393478 C164.23710651 -0.04876565 182.04435064 -0.06002148 199.85163866 -0.07903299 C218.14575263 -0.09841421 236.43984073 -0.10666691 254.73396504 -0.10290974 C265.00088306 -0.10099816 275.26775452 -0.10348112 285.53466415 -0.11762428 C294.27480925 -0.12954263 303.01487912 -0.13093784 311.75502525 -0.11883412 C316.21208592 -0.1129487 320.66900901 -0.11183669 325.12606049 -0.12383652 C329.21086517 -0.13470612 333.2954176 -0.13157923 337.38021053 -0.11757483 C338.85320946 -0.11493087 340.32622823 -0.11728495 341.79920767 -0.1253107 C357.06875239 -0.20269521 369.63870065 2.72969625 381.09353638 13.24897766 C395.65174862 29.06644455 391.94509888 48.09123733 391.94509888 69.26069641 C245.42509888 69.26069641 98.90509888 69.26069641 -52.05490112 69.26069641 C-52.05490112 24.5594516 -52.05490112 24.5594516 -40.05490112 12.26069641 C-28.09924817 1.55342489 -15.58619725 -0.04385624 0 0 Z " fill="#434376" transform="translate(86.05490112304688,7.7393035888671875)"/>
<path d="M0 0 C1.34325743 -0.00015522 2.6865153 -0.00164803 4.0297699 -0.00440979 C6.83474712 -0.00578888 9.63920995 0.00668231 12.4440918 0.02954102 C16.02740853 0.05795256 19.60987347 0.05517472 23.19325352 0.0424509 C25.96350803 0.03547495 28.73356789 0.04330421 31.50379753 0.05570793 C33.46350375 0.06237582 35.42323741 0.05809385 37.38294983 0.05360413 C39.18027809 0.07263039 39.18027809 0.07263039 41.01391602 0.09204102 C42.58774803 0.10014549 42.58774803 0.10014549 44.19337463 0.1084137 C48.93702158 0.72342458 52.97634687 2.61550445 55.93359375 6.43359375 C59.89262021 11.82226866 60.46929233 15.44966966 60.41064453 22.12011719 C60.41093658 22.98876907 60.41122864 23.85742096 60.41152954 24.75239563 C60.41013752 27.6201887 60.39458228 30.48772113 60.37890625 33.35546875 C60.37517567 35.34515236 60.37232891 37.33483782 60.37033081 39.32452393 C60.36269793 44.55899129 60.34305235 49.79334751 60.32092285 55.027771 C60.30045702 60.3700612 60.29132751 65.71236938 60.28125 71.0546875 C60.25980619 81.53520506 60.22567434 92.01564016 60.18359375 102.49609375 C61.46234375 102.4496875 62.74109375 102.40328125 64.05859375 102.35546875 C65.76690354 102.31792348 67.47523883 102.2815263 69.18359375 102.24609375 C70.02277344 102.21257812 70.86195313 102.1790625 71.7265625 102.14453125 C78.33992886 102.04199844 83.74639712 103.31556019 88.71044922 107.90893555 C92.29499005 111.96280326 93.95598196 115.48552296 94.55859375 120.80859375 C93.6401665 129.83979506 87.94334229 135.19912474 81.99609375 141.47265625 C78.78005355 144.88157218 75.89729903 148.51902772 73.00390625 152.203125 C67.85505148 158.68891416 62.16718924 164.72492279 56.58984375 170.83984375 C54.59710422 173.03962116 52.63021235 175.25564593 50.68359375 177.49609375 C47.06082552 181.66569492 43.33493406 185.73834168 39.60546875 189.8125 C37.4970786 192.14873231 35.45973137 194.52643468 33.43359375 196.93359375 C29.56089331 201.39085275 25.25630692 205.09270121 19.1328125 205.69921875 C18.38644531 205.7146875 17.64007813 205.73015625 16.87109375 205.74609375 C15.76314453 205.78476562 15.76314453 205.78476562 14.6328125 205.82421875 C8.91101866 205.05766264 5.14612282 201.83504191 1.24609375 197.80859375 C0.38113281 196.9165625 -0.48382813 196.02453125 -1.375 195.10546875 C-3.97229518 192.32947966 -6.4998172 189.51192295 -8.97265625 186.625 C-11.21039815 184.04116667 -13.511265 181.5199457 -15.81640625 178.99609375 C-19.26913339 175.21007168 -22.67851277 171.39466076 -26.03515625 167.5234375 C-28.11871204 165.15202203 -30.2501962 162.82703126 -32.37890625 160.49609375 C-34.95612399 157.64645198 -37.39313327 154.80710012 -39.62890625 151.68359375 C-42.85902884 147.20691681 -46.66174944 143.27882143 -50.50317383 139.3269043 C-56.14782808 133.39723109 -60.24604303 127.18083485 -60.08984375 118.68359375 C-59.50436268 113.99974517 -57.57914286 110.11460646 -54.09765625 106.91796875 C-49.86651247 103.79839664 -46.47036338 102.36453988 -41.1484375 102.3984375 C-40.25576172 102.40166016 -39.36308594 102.40488281 -38.44335938 102.40820312 C-37.05020508 102.42077148 -37.05020508 102.42077148 -35.62890625 102.43359375 C-34.68853516 102.43810547 -33.74816406 102.44261719 -32.77929688 102.44726562 C-30.45826913 102.45904749 -28.13736981 102.47549817 -25.81640625 102.49609375 C-25.83306084 100.83145081 -25.83306084 100.83145081 -25.85005188 99.13317871 C-25.95155547 88.65786687 -26.02643294 78.18265524 -26.07546711 67.70696259 C-26.10152399 62.32168529 -26.13685098 56.93680605 -26.19360352 51.55175781 C-26.24806216 46.35162969 -26.27785618 41.15188366 -26.29079247 35.95149231 C-26.30000745 33.97078947 -26.31800239 31.99010676 -26.34505653 30.00956726 C-26.38153112 27.22792924 -26.38634394 24.44785558 -26.3840332 21.66601562 C-26.40200958 20.85321136 -26.41998596 20.0404071 -26.43850708 19.20297241 C-26.38474918 13.19413932 -24.61610069 9.15225949 -20.81640625 4.49609375 C-14.57123859 -0.73259907 -7.86054787 -0.06902355 0 0 Z " fill="#FE4C4C" transform="translate(332.81640625,298.50390625)"/>
<path d="M0 0 C6.52219115 4.67896322 11.78914014 10.83372587 16.99609375 16.8984375 C19.24780881 19.49188894 21.55894718 22.02636976 23.875 24.5625 C27.30764761 28.32600521 30.6905501 32.12379351 34.03125 35.96875 C36.28376457 38.52669027 38.57817092 41.0442898 40.875 43.5625 C44.30586226 47.32404778 47.68953576 51.11742633 51.0234375 54.96484375 C53.30975362 57.55503733 55.65749086 60.08555425 58 62.625 C69.30998222 75.03671564 69.30998222 75.03671564 69.1484375 83.80859375 C68.551586 88.72835542 66.76550469 93.21585853 63.19140625 96.70703125 C58.71220093 100.04957802 54.92269084 101.19795737 49.328125 101.16015625 C48.48378906 101.15693359 47.63945312 101.15371094 46.76953125 101.15039062 C45.89683594 101.14201172 45.02414063 101.13363281 44.125 101.125 C43.23683594 101.12048828 42.34867187 101.11597656 41.43359375 101.11132812 C39.24732671 101.099574 37.06119821 101.08314249 34.875 101.0625 C34.88610306 102.18479004 34.89720612 103.30708008 34.90864563 104.46337891 C35.01014475 115.05642099 35.08502457 125.64936399 35.13406086 136.24278259 C35.16011885 141.68859169 35.19544795 147.13400723 35.25219727 152.57958984 C35.30665184 157.83807222 35.3364491 163.09617679 35.34938622 168.35491943 C35.35860192 170.35795028 35.37659826 172.3609612 35.40365028 174.36383057 C35.44011933 177.17659668 35.4449379 179.98781554 35.44262695 182.80078125 C35.46060333 183.62293625 35.47857971 184.44509125 35.49710083 185.29216003 C35.44406526 191.28517977 33.7677269 195.46876372 29.875 200.0625 C23.45379887 205.16462628 16.04356913 204.62913729 8.1796875 204.55859375 C6.22036789 204.5607766 6.22036789 204.5607766 4.22146606 204.56300354 C1.46953931 204.56438101 -1.28186209 204.55193745 -4.03369141 204.52905273 C-7.54860304 204.50061296 -11.06264692 204.50342892 -14.57762337 204.51614285 C-17.95027628 204.52479343 -21.32267421 204.50964805 -24.6953125 204.49609375 C-25.95167511 204.49902939 -27.20803772 204.50196503 -28.50247192 204.50498962 C-29.67744232 204.49230545 -30.85241272 204.47962128 -32.06298828 204.46655273 C-33.09142853 204.46114975 -34.11986877 204.45574677 -35.17947388 204.45018005 C-40.32440345 203.77302206 -44.1832182 201.56237197 -47.4375 197.5625 C-47.92863281 196.9746875 -48.41976562 196.386875 -48.92578125 195.78125 C-51.78011883 191.69034271 -51.25914561 187.22503639 -51.23852539 182.46020508 C-51.23867142 181.58194565 -51.23881744 180.70368622 -51.2389679 179.79881287 C-51.23827072 176.89319395 -51.23048739 173.98763898 -51.22265625 171.08203125 C-51.22079138 169.06849706 -51.2193678 167.05496242 -51.21836853 165.04142761 C-51.21454879 159.73958078 -51.20472312 154.43776131 -51.19366455 149.13592529 C-51.18343877 143.72668833 -51.1788684 138.31744696 -51.17382812 132.90820312 C-51.16310039 122.29295673 -51.14603046 111.67773064 -51.125 101.0625 C-52.41535156 101.09730469 -53.70570312 101.13210938 -55.03515625 101.16796875 C-56.75259106 101.19612342 -58.47004007 101.22342177 -60.1875 101.25 C-61.03505859 101.27513672 -61.88261719 101.30027344 -62.75585938 101.32617188 C-69.08655013 101.39950034 -74.07052835 100.67707817 -79.05078125 96.4140625 C-83.59850378 90.75182769 -85.88943625 86.57945649 -85.125 79.0625 C-82.35855046 71.03979633 -76.28880879 65.55420448 -70.53027344 59.54443359 C-68.78004961 57.69873196 -67.10044244 55.79948503 -65.4375 53.875 C-60.64174872 48.33608146 -55.70699803 42.92175957 -50.796875 37.484375 C-47.40155062 33.7194915 -44.01441658 29.95056449 -40.6875 26.125 C-37.04111248 21.93715355 -33.29611029 17.84184927 -29.546875 13.74609375 C-27.43848485 11.40986144 -25.40113762 9.03215907 -23.375 6.625 C-16.59603004 -1.01703326 -9.89835046 -2.96950514 0 0 Z " fill="#25E471" transform="translate(170.125,299.9375)"/>
<path d="M0 0 C7.33091939 7.19998157 9.87355468 15.87458429 10.02908897 25.90618896 C10.03246358 28.25054563 10.00592555 30.59334205 9.9765625 32.9375 C9.97552279 34.59228514 9.97656787 36.24707275 9.97958374 37.90185547 C9.9794056 41.34462056 9.95880438 44.78643606 9.92236328 48.22900391 C9.87670314 52.63868831 9.87596507 57.04700683 9.88939857 61.4568634 C9.89607754 64.86273334 9.88282449 68.26829191 9.86314011 71.67410278 C9.85545599 73.30077487 9.85313144 74.92748158 9.8563118 76.5541687 C9.85705376 78.82064152 9.83181362 81.08535444 9.79931641 83.3515625 C9.79010162 84.63885254 9.78088684 85.92614258 9.77139282 87.25244141 C9.16018549 91.05942061 8.31332467 92.23012748 5.25 94.5 C1.8125 95.5 1.8125 95.5 -1.75 95.5 C-4.55189446 93.73358828 -6.26524911 92.46950178 -7.75 89.5 C-7.83683445 86.72839374 -7.8655579 83.98225235 -7.84765625 81.2109375 C-7.8462413 80.39251373 -7.84482635 79.57408997 -7.84336853 78.73086548 C-7.8377629 76.11220675 -7.82520948 73.49363296 -7.8125 70.875 C-7.80748572 69.10156373 -7.80292269 67.32812613 -7.79882812 65.5546875 C-7.78864174 61.20306581 -7.7690675 56.85162818 -7.75 52.5 C-16 52.5 -24.25 52.5 -32.75 52.5 C-32.70359375 55.11292969 -32.6571875 57.72585937 -32.609375 60.41796875 C-32.57815519 62.95644184 -32.5538813 65.49489332 -32.53027344 68.03344727 C-32.51019214 69.79396175 -32.48292121 71.55440982 -32.44824219 73.31469727 C-32.39956888 75.84928802 -32.37699695 78.38299495 -32.359375 80.91796875 C-32.32840729 82.09325386 -32.32840729 82.09325386 -32.29681396 83.2922821 C-32.29526807 87.08067862 -32.58969138 89.2490078 -34.64941406 92.47387695 C-37.13866174 94.87488422 -38.13824188 95.41843225 -41.5625 95.875 C-45.90401568 95.36423345 -47.05645073 93.88403811 -49.75 90.5 C-50.37818909 87.06730652 -50.37818909 87.06730652 -50.38110352 83.08276367 C-50.38825882 82.35361252 -50.39541412 81.62446136 -50.40278625 80.87321472 C-50.41964759 78.47082187 -50.40028242 76.07030279 -50.37890625 73.66796875 C-50.37973547 71.99033962 -50.38219684 70.31271058 -50.38621521 68.63508606 C-50.38907179 65.1203259 -50.37439114 61.60620343 -50.34692383 58.09155273 C-50.31291973 53.60250414 -50.31883403 49.11460142 -50.3375864 44.62549877 C-50.34819648 41.16028936 -50.33918109 37.69534288 -50.32420158 34.23015785 C-50.31904331 32.57608129 -50.31947279 30.92197699 -50.32574654 29.26790428 C-50.36340466 13.36717706 -50.36340466 13.36717706 -45.75 6.5 C-45.28078125 5.79488281 -44.8115625 5.08976563 -44.328125 4.36328125 C-32.81284537 -9.08250114 -14.27665558 -10.53604713 0 0 Z " fill="#FBFBFC" transform="translate(203.75,143.5)"/>
<path d="M0 0 C2.18205277 -0.00433186 4.36201191 -0.04053325 6.54370117 -0.07861328 C15.92272011 -0.15371899 23.29952199 1.08666846 31.40112305 6.05810547 C37.6276025 12.45754268 41.93083839 19.57203985 41.96362305 28.62060547 C41.7315839 38.93474548 39.22672088 44.6791332 32.0690918 52.19873047 C26.91403778 56.82911824 20.95223357 59.51265076 13.9831543 59.46826172 C13.09047852 59.46503906 12.19780273 59.46181641 11.27807617 59.45849609 C9.88492187 59.44592773 9.88492187 59.44592773 8.46362305 59.43310547 C7.52325195 59.42859375 6.58288086 59.42408203 5.61401367 59.41943359 C3.29298592 59.40765173 0.9720866 59.39120105 -1.34887695 59.37060547 C-1.32269287 60.4955542 -1.29650879 61.62050293 -1.26953125 62.77954102 C-1.1788595 66.96325704 -1.12156658 71.14688668 -1.07421875 75.33129883 C-1.04911305 77.14036679 -1.015021 78.94933369 -0.97167969 80.75805664 C-0.91085117 83.36223297 -0.88262886 85.96506578 -0.8605957 88.56982422 C-0.83478928 89.37522141 -0.80898285 90.18061859 -0.78239441 91.01042175 C-0.78027124 95.28543944 -0.9735438 96.88826892 -3.69189453 100.3815918 C-6.34887695 102.37060547 -6.34887695 102.37060547 -9.34887695 102.99560547 C-13.31220978 102.16991113 -14.79422221 100.43619116 -17.34887695 97.37060547 C-18.96638524 94.1355889 -18.49610799 90.59142225 -18.49414062 87.03710938 C-18.49749924 86.17517471 -18.50085785 85.31324005 -18.50431824 84.42518616 C-18.51384439 81.56583224 -18.51577223 78.70653678 -18.5168457 75.84716797 C-18.52005731 73.8642067 -18.52342131 71.88124567 -18.52693176 69.89828491 C-18.53292733 65.73703461 -18.53477124 61.5758051 -18.53417969 57.41455078 C-18.53407808 52.07897355 -18.54772669 46.74352945 -18.5649519 41.40798378 C-18.57606404 37.31079495 -18.57809913 33.21363837 -18.57756996 29.116436 C-18.5787514 27.14923011 -18.58318234 25.18202341 -18.59090233 23.21483231 C-18.60068559 20.46408998 -18.59783065 17.71363749 -18.59179688 14.96289062 C-18.59741638 14.14819809 -18.60303589 13.33350555 -18.60882568 12.49412537 C-18.56910572 5.37805328 -18.56910572 5.37805328 -16.34887695 2.37060547 C-11.46371775 -0.88616733 -5.71866855 -0.00127011 0 0 Z " fill="#FAFAFA" transform="translate(248.348876953125,136.62939453125)"/>
<path d="M0 0 C1.16478378 -0.01583633 2.32956757 -0.03167267 3.52964783 -0.04798889 C4.78387039 -0.04302902 6.03809296 -0.03806915 7.33032227 -0.03295898 C9.268395 -0.04225685 9.268395 -0.04225685 11.24562073 -0.05174255 C13.97854444 -0.06214113 16.71094732 -0.05759469 19.44384766 -0.04296875 C22.93913677 -0.02579013 26.43278053 -0.04926355 29.92788601 -0.08445835 C33.27046105 -0.11175532 36.61264094 -0.10169438 39.95532227 -0.09545898 C41.83361977 -0.1153463 41.83361977 -0.1153463 43.74986267 -0.13563538 C53.40289706 -0.03204874 53.40289706 -0.03204874 56.49853516 2.88525391 C58.62545552 6.1777764 59.01004713 7.68951793 58.20922852 11.53344727 C56.55922852 13.18344727 54.90922852 14.83344727 53.20922852 16.53344727 C46.27922852 16.53344727 39.34922852 16.53344727 32.20922852 16.53344727 C32.20922852 39.30344727 32.20922852 62.07344727 32.20922852 85.53344727 C38.80922852 85.53344727 45.40922852 85.53344727 52.20922852 85.53344727 C56.20922852 87.53344727 56.20922852 87.53344727 58.20922852 90.53344727 C58.71758144 94.43081967 58.53885034 96.03901453 56.33422852 99.34594727 C54.00162996 101.74715166 53.14706965 102.47256754 49.83842468 102.68734741 C48.84534805 102.70020782 47.85227142 102.71306824 46.82910156 102.72631836 C45.14176155 102.75041275 45.14176155 102.75041275 43.42033386 102.7749939 C38.27356761 102.81936202 33.12689051 102.86094829 27.97998047 102.88354492 C25.26284073 102.89687938 22.54645292 102.92472109 19.82958984 102.96557617 C15.91839621 103.02438895 12.007568 103.0422069 8.09594727 103.05688477 C6.88122238 103.07955414 5.6664975 103.10222351 4.41496277 103.12557983 C-4.96738337 103.10200683 -4.96738337 103.10200683 -8.05712891 100.21948242 C-10.36365775 96.64584063 -10.53655677 94.70984485 -9.79077148 90.53344727 C-8.14077148 88.88344727 -6.49077148 87.23344727 -4.79077148 85.53344727 C1.80922852 85.53344727 8.40922852 85.53344727 15.20922852 85.53344727 C15.20922852 63.09344727 15.20922852 40.65344727 15.20922852 17.53344727 C8.93922852 17.53344727 2.66922852 17.53344727 -3.79077148 17.53344727 C-9.79077148 12.53344727 -9.79077148 12.53344727 -10.51733398 10.43579102 C-10.34759866 7.15206541 -10.12138444 4.96964533 -8.1136322 2.32069397 C-5.20433262 0.08223169 -3.64453845 0.02205792 0 0 Z " fill="#FCFCFC" transform="translate(308.790771484375,136.466552734375)"/>
<path d="M0 0 C1.39001103 -0.00677883 2.78001308 -0.01568346 4.16999817 -0.02655029 C7.93880429 -0.04932166 11.70692514 -0.04051627 15.47574306 -0.02465487 C19.42342755 -0.01198187 23.371054 -0.02374008 27.31874084 -0.03158569 C33.94892898 -0.0406793 40.57883855 -0.02870324 47.20898438 -0.00488281 C54.86804263 0.02231696 62.52643513 0.01352194 70.1854772 -0.01401484 C76.76656689 -0.03672674 83.34745648 -0.03989557 89.92857271 -0.02682149 C93.85684494 -0.01903687 97.78480458 -0.01795761 101.71305656 -0.03450394 C105.40776939 -0.04897966 109.10162679 -0.03887193 112.79624748 -0.01003265 C114.79413562 -0.00029882 116.79209636 -0.01509646 118.78994751 -0.03067017 C128.58286165 0.08479043 128.58286165 0.08479043 132.30177307 2.96865845 C134.49243164 5.64697266 134.49243164 5.64697266 135.17993164 9.14697266 C134.52297358 12.49148643 133.92102916 14.29005591 131.4220295 16.61482048 C126.7539937 19.11177771 120.93475985 18.32559961 115.76953125 18.27807617 C114.35657351 18.28321676 112.94362218 18.2904991 111.53068542 18.29975891 C107.70001469 18.3182623 103.87004058 18.30534239 100.03939891 18.28566861 C96.02939601 18.26927491 92.01943698 18.27809585 88.00941467 18.28318787 C81.27667113 18.28770752 74.54420552 18.27184586 67.81152344 18.24389648 C60.02752942 18.21183197 52.2440363 18.21186565 44.46000665 18.22911125 C36.9704262 18.24497321 29.4810294 18.23824583 21.99145699 18.22117424 C18.80450108 18.21430159 15.61769229 18.21533828 12.43073845 18.22271919 C8.67867086 18.2303789 4.92717363 18.21826711 1.17520332 18.19087029 C-0.20184002 18.18398241 -1.57893661 18.18389287 -2.95597839 18.19108582 C-4.83512418 18.19977068 -6.7143371 18.18139817 -8.59339905 18.16163635 C-9.6451233 18.15882943 -10.69684755 18.15602251 -11.78044224 18.15313053 C-15.23414278 17.51211957 -16.41457278 16.42912966 -18.50756836 13.64697266 C-19.44561703 7.08063197 -19.44561703 7.08063197 -16.81248474 3.05630493 C-12.38313001 -1.1829098 -5.70869903 -0.04443135 0 0 Z " fill="#2A2A49" transform="translate(266.507568359375,33.35302734375)"/>
<path d="M0 0 C4.28669892 1.73292084 6.04989607 3.85740634 8 8 C8.35360149 10.95172541 8.28374634 13.84533047 8.1875 16.8125 C8.125625 19.514375 8.06375 22.21625 8 25 C-0.25 25 -8.5 25 -17 25 C-17.0825 22.31875 -17.165 19.6375 -17.25 16.875 C-17.28641602 16.04210449 -17.32283203 15.20920898 -17.36035156 14.35107422 C-17.43809465 9.09589248 -16.50371824 6.14648669 -13 2 C-8.74178609 -0.83880927 -4.99661255 -0.51165313 0 0 Z " fill="#2B2B4A" transform="translate(188,154)"/>
<path d="M0 0 C17.27678571 -0.80357143 17.27678571 -0.80357143 21.5 2.875 C24.01770418 5.64715301 24.95678973 7.43826647 25.25 11.25 C24.9319665 16.02050249 23.53734709 19.14237227 20.5 22.8125 C16.77163638 25.7641212 12.29961197 25.11305775 7.8125 25.0625 C5.234375 25.041875 2.65625 25.02125 0 25 C0 16.75 0 8.5 0 0 Z " fill="#2B2B4A" transform="translate(248,154)"/>
<path d="M0 0 C1.19625 -0.0103125 2.3925 -0.020625 3.625 -0.03125 C7.57717905 0.59085226 9.23514392 1.64858304 12 4.5 C12.93605213 7.99459462 13.3742539 10.34605048 12.25 13.8125 C11 15.5 11 15.5 8 17.5 C5.3192329 17.80107967 2.80843739 17.96131982 0.125 18 C-0.58269531 18.04125 -1.29039063 18.0825 -2.01953125 18.125 C-4.91579693 18.16814735 -7.27075926 18.06063271 -9.61767578 16.25634766 C-12.18251461 13.35991893 -12.99043069 11.77751009 -13.125 7.875 C-10.90638012 1.21914035 -6.63712573 -0.0572166 0 0 Z " fill="#F94C4E" transform="translate(81,33.5)"/>
<path d="M0 0 C3.3701459 1.226026 3.92623147 1.8893472 6 5 C6.55367781 9.27122881 6.59681817 11.22085219 3.94140625 14.6875 C0.23411609 17.60212918 -1.82872495 17.67171275 -6.5 17.625 C-8.43359375 17.64433594 -8.43359375 17.64433594 -10.40625 17.6640625 C-14.81216976 16.84992515 -16.29068379 15.50677532 -19 12 C-19.75123045 7.79310949 -19.44098839 5.79717131 -17.375 2.0625 C-11.97916089 -1.23495723 -6.16831674 -0.69843872 0 0 Z " fill="#25E172" transform="translate(173,34)"/>
<path d="M0 0 C4.63309353 2.26618705 4.63309353 2.26618705 6 5 C6.55988858 10.78551532 6.55988858 10.78551532 6 13 C3.18688557 16.05959683 1.51399937 16.92973313 -2.62890625 17.49609375 C-3.92699219 17.47675781 -5.22507812 17.45742188 -6.5625 17.4375 C-8.51349609 17.43556641 -8.51349609 17.43556641 -10.50390625 17.43359375 C-14.10273426 16.98725866 -15.57195966 16.64715618 -18 14 C-19.13107904 10.99504375 -19.27911648 8.18751018 -19 5 C-15.38108408 -2.0930752 -6.94880252 -0.96511146 0 0 Z " fill="#F3B827" transform="translate(130,34)"/>
</svg>
