<?xml version="1.0" encoding="UTF-8"?>
<svg xmlns="http://www.w3.org/2000/svg" xmlns:xlink="http://www.w3.org/1999/xlink" width="px" height="px" viewBox="0 0 256 256" version="1.1">
<g id="surface1">
<path style=" stroke:none;fill-rule:nonzero;fill:rgb(40%,72.941176%,0%);fill-opacity:1;" d="M 0 0 C 84.480469 0 168.960938 0 256 0 C 256 54.78125 256 109.558594 256 166 C 253.523438 166 251.050781 166 248.5 166 C 249.289062 167.5 249.289062 167.5 250.09375 169.03125 C 251.96875 172.730469 253.378906 176.507812 254.5 180.5 C 254.742188 181.355469 254.742188 181.355469 254.984375 182.222656 C 258.667969 198.066406 255.441406 214.941406 246.96875 228.667969 C 238.496094 241.386719 226.234375 250.355469 211.5 254.5 C 210.644531 254.742188 210.644531 254.742188 209.773438 254.984375 C 193.933594 258.667969 177.058594 255.441406 163.332031 246.96875 C 150.613281 238.496094 141.644531 226.234375 137.5 211.5 C 137.257812 210.644531 137.257812 210.644531 137.011719 209.773438 C 133.835938 196.109375 135.777344 181.320312 142.054688 168.863281 C 142.328125 168.328125 142.597656 167.789062 142.875 167.238281 C 143.183594 166.625 143.183594 166.625 143.5 166 C 136.082031 165.960938 128.660156 165.945312 121.242188 165.960938 C 117.796875 165.96875 114.351562 165.96875 110.90625 165.945312 C 107.578125 165.925781 104.253906 165.929688 100.925781 165.945312 C 99.660156 165.949219 98.390625 165.945312 97.125 165.929688 C 95.34375 165.914062 93.566406 165.925781 91.789062 165.941406 C 91.269531 165.933594 90.746094 165.921875 90.207031 165.910156 C 87.183594 165.972656 85.679688 166.507812 83.5 168.660156 C 82.820312 169.425781 82.152344 170.207031 81.5 171 C 80.902344 171.675781 80.308594 172.351562 79.710938 173.023438 C 79.429688 173.351562 79.148438 173.675781 78.859375 174.011719 C 77.34375 175.753906 75.746094 177.417969 74.15625 179.09375 C 71.734375 181.652344 69.324219 184.21875 66.9375 186.8125 C 64.792969 189.144531 62.632812 191.464844 60.46875 193.78125 C 58.382812 196.011719 56.308594 198.246094 54.25 200.5 C 51.894531 203.078125 49.515625 205.632812 47.132812 208.179688 C 45.246094 210.199219 43.371094 212.21875 41.5 214.25 C 40.765625 215.042969 40.035156 215.839844 39.300781 216.632812 C 38.726562 217.253906 38.15625 217.875 37.582031 218.496094 C 36.628906 219.527344 35.675781 220.5625 34.71875 221.59375 C 34.421875 221.917969 34.121094 222.242188 33.816406 222.578125 C 33.535156 222.878906 33.253906 223.179688 32.96875 223.488281 C 32.71875 223.757812 32.472656 224.027344 32.21875 224.300781 C 31.5 225 31.5 225 30 226 C 30 206.199219 30 186.398438 30 166 C 20.101562 166 10.199219 166 0 166 C 0 111.21875 0 56.441406 0 0 Z M 0 0 "/>
<path style=" stroke:none;fill-rule:nonzero;fill:rgb(46.666667%,86.666667%,0%);fill-opacity:1;" d="M 0 0 C 42.40625 0 84.808594 0 128.5 0 C 128.5 15.179688 128.5 30.359375 128.5 46 C 155.726562 46 182.949219 46 211 46 C 211 50.949219 211 55.898438 211 61 C 183.773438 61 156.550781 61 128.5 61 C 128.5 65.949219 128.5 70.898438 128.5 76 C 155.726562 76 182.949219 76 211 76 C 211 80.949219 211 85.898438 211 91 C 183.773438 91 156.550781 91 128.5 91 C 128.5 95.949219 128.5 100.898438 128.5 106 C 135.925781 106 143.351562 106 151 106 C 151 110.949219 151 115.898438 151 121 C 143.574219 121 136.148438 121 128.5 121 C 128.5 135.851562 128.5 150.699219 128.5 166 C 107.53125 165.96875 107.53125 165.96875 100.933594 165.921875 C 98.964844 165.933594 98.964844 165.933594 96.996094 165.945312 C 96.128906 165.949219 95.257812 165.945312 94.386719 165.933594 C 89.199219 165.730469 89.199219 165.730469 84.460938 167.46875 C 83.324219 168.585938 82.414062 169.699219 81.5 171 C 80.910156 171.679688 80.3125 172.355469 79.710938 173.023438 C 79.429688 173.351562 79.148438 173.675781 78.859375 174.011719 C 77.34375 175.753906 75.746094 177.417969 74.15625 179.09375 C 71.734375 181.652344 69.324219 184.21875 66.9375 186.8125 C 64.792969 189.144531 62.632812 191.464844 60.46875 193.78125 C 58.382812 196.011719 56.308594 198.246094 54.25 200.5 C 51.894531 203.078125 49.515625 205.632812 47.132812 208.179688 C 45.246094 210.199219 43.371094 212.21875 41.5 214.25 C 40.765625 215.042969 40.035156 215.839844 39.300781 216.632812 C 38.726562 217.253906 38.15625 217.875 37.582031 218.496094 C 36.628906 219.527344 35.675781 220.5625 34.71875 221.59375 C 34.421875 221.917969 34.121094 222.242188 33.816406 222.578125 C 33.535156 222.878906 33.253906 223.179688 32.96875 223.488281 C 32.71875 223.757812 32.472656 224.027344 32.21875 224.300781 C 31.5 225 31.5 225 30 226 C 30 206.199219 30 186.398438 30 166 C 20.101562 166 10.199219 166 0 166 C 0 111.21875 0 56.441406 0 0 Z M 0 0 "/>
<path style=" stroke:none;fill-rule:nonzero;fill:rgb(99.607843%,32.156863%,27.058824%);fill-opacity:1;" d="M 194.09375 135.945312 C 203.378906 135.550781 211.988281 137.285156 220.5 141 C 221.082031 141.25 221.667969 141.5 222.269531 141.757812 C 236.1875 148.214844 247.15625 160.632812 252.710938 174.820312 C 253.382812 176.707031 253.957031 178.574219 254.5 180.5 C 254.742188 181.355469 254.742188 181.355469 254.984375 182.222656 C 258.667969 198.066406 255.441406 214.941406 246.96875 228.667969 C 238.496094 241.386719 226.234375 250.355469 211.5 254.5 C 210.644531 254.742188 210.644531 254.742188 209.773438 254.984375 C 193.933594 258.667969 177.058594 255.441406 163.332031 246.96875 C 150.613281 238.496094 141.644531 226.234375 137.5 211.5 C 137.257812 210.644531 137.257812 210.644531 137.015625 209.773438 C 133.679688 195.425781 135.773438 178.664062 143.5 166 C 146.375 161.796875 149.511719 157.710938 153 154 C 153.265625 153.699219 153.527344 153.398438 153.800781 153.085938 C 164.097656 141.929688 179.304688 136.671875 194.09375 135.945312 Z M 194.09375 135.945312 "/>
<path style=" stroke:none;fill-rule:nonzero;fill:rgb(92.941176%,14.901961%,14.901961%);fill-opacity:1;" d="M 196 136 C 203.617188 136 203.617188 136 207.40625 136.8125 C 207.832031 136.902344 208.257812 136.988281 208.695312 137.082031 C 212.800781 137.988281 216.648438 139.320312 220.5 141 C 221.375 141.375 221.375 141.375 222.269531 141.757812 C 236.1875 148.214844 247.15625 160.632812 252.710938 174.820312 C 253.382812 176.707031 253.957031 178.574219 254.5 180.5 C 254.660156 181.070312 254.820312 181.636719 254.984375 182.226562 C 258.667969 198.066406 255.441406 214.941406 246.96875 228.667969 C 237.738281 242.523438 223.878906 252.078125 207.5 255.40625 C 203.53125 256.195312 200.265625 256 196 256 C 196 246.101562 196 236.199219 196 226 C 198.476562 226 200.949219 226 203.5 226 C 203.335938 204.21875 203.171875 182.441406 203 160 C 201.019531 161.320312 199.039062 162.640625 197 164 C 196.671875 164 196.339844 164 196 164 C 196 154.761719 196 145.519531 196 136 Z M 196 136 "/>
<path style=" stroke:none;fill-rule:nonzero;fill:rgb(90.588235%,90.588235%,90.588235%);fill-opacity:1;" d="M 45 76 C 99.78125 76 154.558594 76 211 76 C 211 80.949219 211 85.898438 211 91 C 156.21875 91 101.441406 91 45 91 C 45 86.050781 45 81.101562 45 76 Z M 45 76 "/>
<path style=" stroke:none;fill-rule:nonzero;fill:rgb(90.588235%,90.588235%,90.588235%);fill-opacity:1;" d="M 45 46 C 99.78125 46 154.558594 46 211 46 C 211 50.949219 211 55.898438 211 61 C 156.21875 61 101.441406 61 45 61 C 45 56.050781 45 51.101562 45 46 Z M 45 46 "/>
<path style=" stroke:none;fill-rule:nonzero;fill:rgb(90.588235%,90.588235%,90.588235%);fill-opacity:1;" d="M 45 106 C 79.980469 106 114.960938 106 151 106 C 151 110.949219 151 115.898438 151 121 C 116.019531 121 81.039062 121 45 121 C 45 116.050781 45 111.101562 45 106 Z M 45 106 "/>
<path style=" stroke:none;fill-rule:nonzero;fill:rgb(82.745098%,82.745098%,84.705882%);fill-opacity:1;" d="M 128.5 76 C 155.726562 76 182.949219 76 211 76 C 211 80.949219 211 85.898438 211 91 C 183.773438 91 156.550781 91 128.5 91 C 128.5 86.050781 128.5 81.101562 128.5 76 Z M 128.5 76 "/>
<path style=" stroke:none;fill-rule:nonzero;fill:rgb(82.745098%,82.745098%,84.705882%);fill-opacity:1;" d="M 128.5 46 C 155.726562 46 182.949219 46 211 46 C 211 50.949219 211 55.898438 211 61 C 183.773438 61 156.550781 61 128.5 61 C 128.5 56.050781 128.5 51.101562 128.5 46 Z M 128.5 46 "/>
<path style=" stroke:none;fill-rule:nonzero;fill:rgb(90.588235%,90.196078%,90.196078%);fill-opacity:1;" d="M 203.5 159.5 C 203.5 181.445312 203.5 203.390625 203.5 226 C 198.550781 226 193.601562 226 188.5 226 C 188.335938 213.460938 188.171875 200.921875 188 188 C 184.863281 190.144531 181.730469 192.289062 178.5 194.5 C 176.421875 193.460938 175.988281 192.976562 174.773438 191.105469 C 174.464844 190.636719 174.15625 190.164062 173.835938 189.679688 C 173.519531 189.1875 173.203125 188.695312 172.875 188.1875 C 172.386719 187.441406 172.386719 187.441406 171.890625 186.683594 C 171.089844 185.457031 170.292969 184.230469 169.5 183 C 170.242188 180.738281 172.035156 179.90625 173.976562 178.769531 C 174.707031 178.328125 175.4375 177.882812 176.167969 177.4375 C 176.550781 177.203125 176.933594 176.972656 177.328125 176.730469 C 179.289062 175.507812 181.203125 174.214844 183.117188 172.917969 C 183.507812 172.652344 183.894531 172.390625 184.296875 172.117188 C 185.492188 171.308594 186.683594 170.5 187.875 169.6875 C 188.679688 169.140625 189.484375 168.597656 190.289062 168.050781 C 190.679688 167.785156 191.074219 167.519531 191.476562 167.242188 C 191.863281 166.980469 192.25 166.71875 192.648438 166.449219 C 193.027344 166.195312 193.402344 165.9375 193.792969 165.675781 C 196.039062 164.152344 198.285156 162.628906 200.539062 161.113281 C 201.007812 160.796875 201.476562 160.484375 201.960938 160.15625 C 203 159.5 203 159.5 203.5 159.5 Z M 203.5 159.5 "/>
<path style=" stroke:none;fill-rule:nonzero;fill:rgb(82.745098%,82.352941%,84.313725%);fill-opacity:1;" d="M 203.5 159.5 C 203.5 181.445312 203.5 203.390625 203.5 226 C 201.023438 226 198.550781 226 196 226 C 195.761719 218.070312 195.5625 210.136719 195.414062 202.203125 C 195.347656 198.519531 195.265625 194.835938 195.148438 191.152344 C 195.046875 187.941406 194.972656 184.730469 194.929688 181.515625 C 194.90625 179.816406 194.867188 178.117188 194.800781 176.417969 C 194.414062 166.035156 194.414062 166.035156 196.257812 163.425781 C 198.003906 161.753906 200.960938 159.5 203.5 159.5 Z M 203.5 159.5 "/>
<path style=" stroke:none;fill-rule:nonzero;fill:rgb(82.745098%,82.745098%,84.705882%);fill-opacity:1;" d="M 128.5 106 C 135.925781 106 143.351562 106 151 106 C 151 110.949219 151 115.898438 151 121 C 143.574219 121 136.148438 121 128.5 121 C 128.5 116.050781 128.5 111.101562 128.5 106 Z M 128.5 106 "/>
</g>
</svg>
