<?xml version="1.0" encoding="UTF-8"?>
<svg version="1.1" xmlns="http://www.w3.org/2000/svg" width="512" height="512">
<path d="M0 0 C168.96 0 337.92 0 512 0 C512 109.56 512 219.12 512 332 C507.05 332 502.1 332 497 332 C498.5778125 335.0009375 498.5778125 335.0009375 500.1875 338.0625 C503.93756051 345.46221196 506.75567549 353.0174392 509 361 C509.48146484 362.70736328 509.48146484 362.70736328 509.97265625 364.44921875 C517.33775406 396.13626746 510.88150621 429.88461802 493.94140625 457.3359375 C476.99184161 482.77539103 452.47091008 500.71415196 423 509 C421.29263672 509.48146484 421.29263672 509.48146484 419.55078125 509.97265625 C387.86373254 517.33775406 354.11538198 510.88150621 326.6640625 493.94140625 C301.22460897 476.99184161 283.28584804 452.47091008 275 423 C274.51853516 421.29263672 274.51853516 421.29263672 274.02734375 419.55078125 C267.67385386 392.21599916 271.55449487 362.64292116 284.11206055 337.72949219 C284.65275681 336.65479675 285.19345306 335.58010132 285.75053406 334.47283936 C286.3690197 333.24878387 286.3690197 333.24878387 287 332 C272.16114826 331.92020701 257.32294175 331.89212029 242.4838953 331.92484188 C235.59305954 331.93884386 228.70299443 331.9362087 221.81225586 331.89379883 C215.15944477 331.85290078 208.50774307 331.85917088 201.85482597 331.89392281 C199.31957005 331.8995121 196.78422846 331.88942159 194.24910164 331.86323357 C190.69069478 331.82918101 187.1366752 331.85140467 183.57836914 331.88647461 C182.53539169 331.86346786 181.49241425 331.84046112 180.41783142 331.8167572 C174.36833822 331.94506905 171.35548467 333.01263381 167.00022888 337.31642151 C165.63898798 338.85340801 164.30382 340.41401207 163 342 C161.8079914 343.35202794 160.614336 344.70260861 159.41796875 346.05078125 C158.85770996 346.70256348 158.29745117 347.3543457 157.72021484 348.02587891 C154.6861462 351.50778056 151.49091289 354.83782803 148.3125 358.1875 C143.47257598 363.30851663 138.64524503 368.43896242 133.875 373.625 C129.58343782 378.29063093 125.26757582 382.93258664 120.9375 387.5625 C116.76874495 392.02117662 112.61830175 396.49466255 108.5 401 C103.78872712 406.15403568 99.03100608 411.2629371 94.26171875 416.36328125 C90.49297785 420.3953403 86.73950593 424.4408246 83 428.5 C81.53433223 430.0883448 80.06828494 431.67633819 78.60205078 433.26416016 C77.4564976 434.50537977 76.31172882 435.74732349 75.16748047 436.98974609 C73.26055866 439.05852607 71.34941933 441.1233389 69.4375 443.1875 C68.84130859 443.83589844 68.24511719 444.48429687 67.63085938 445.15234375 C67.07076172 445.755625 66.51066406 446.35890625 65.93359375 446.98046875 C65.43915771 447.51567139 64.94472168 448.05087402 64.43530273 448.60229492 C63 450 63 450 60 452 C60 412.4 60 372.8 60 332 C40.2 332 20.4 332 0 332 C0 222.44 0 112.88 0 0 Z " fill="#66BA00" transform="translate(0,0)"/>
<path d="M0 0 C84.81 0 169.62 0 257 0 C257 30.36 257 60.72 257 92 C311.45 92 365.9 92 422 92 C422 101.9 422 111.8 422 122 C367.55 122 313.1 122 257 122 C257 131.9 257 141.8 257 152 C311.45 152 365.9 152 422 152 C422 161.9 422 171.8 422 182 C367.55 182 313.1 182 257 182 C257 191.9 257 201.8 257 212 C271.85 212 286.7 212 302 212 C302 221.9 302 231.8 302 242 C287.15 242 272.3 242 257 242 C257 271.7 257 301.4 257 332 C215.0625 331.9375 215.0625 331.9375 201.86352539 331.84741211 C197.92915278 331.86393682 197.92915278 331.86393682 193.99485779 331.89234924 C192.25440736 331.89924597 190.51382971 331.88860279 188.77354431 331.86366272 C178.39652015 331.4634527 178.39652015 331.4634527 168.92106628 334.93452454 C166.64979492 337.17444406 164.83021157 339.39493438 163 342 C161.81881169 343.36149119 160.62673501 344.71371424 159.41796875 346.05078125 C158.85770996 346.70256348 158.29745117 347.3543457 157.72021484 348.02587891 C154.6861462 351.50778056 151.49091289 354.83782803 148.3125 358.1875 C143.47257598 363.30851663 138.64524503 368.43896242 133.875 373.625 C129.58343782 378.29063093 125.26757582 382.93258664 120.9375 387.5625 C116.76874495 392.02117662 112.61830175 396.49466255 108.5 401 C103.78872712 406.15403568 99.03100608 411.2629371 94.26171875 416.36328125 C90.49297785 420.3953403 86.73950593 424.4408246 83 428.5 C81.53433223 430.0883448 80.06828494 431.67633819 78.60205078 433.26416016 C77.4564976 434.50537977 76.31172882 435.74732349 75.16748047 436.98974609 C73.26055866 439.05852607 71.34941933 441.1233389 69.4375 443.1875 C68.84130859 443.83589844 68.24511719 444.48429687 67.63085938 445.15234375 C67.07076172 445.755625 66.51066406 446.35890625 65.93359375 446.98046875 C65.43915771 447.51567139 64.94472168 448.05087402 64.43530273 448.60229492 C63 450 63 450 60 452 C60 412.4 60 372.8 60 332 C40.2 332 20.4 332 0 332 C0 222.44 0 112.88 0 0 Z " fill="#77DD00" transform="translate(0,0)"/>
<path d="M0 0 C18.57796041 -0.78883887 35.79546125 2.68051086 52.81640625 10.10742188 C53.98429688 10.60886719 55.1521875 11.1103125 56.35546875 11.62695312 C84.1931383 24.54036417 106.12845688 49.36997308 117.2421875 77.74804688 C118.57905523 81.51809275 119.73385185 85.25701776 120.81640625 89.10742188 C121.29787109 90.81478516 121.29787109 90.81478516 121.7890625 92.55664062 C129.15416031 124.24368934 122.69791246 157.99203989 105.7578125 185.44335938 C88.80824786 210.8828129 64.28731633 228.82157383 34.81640625 237.10742188 C33.10904297 237.58888672 33.10904297 237.58888672 31.3671875 238.08007812 C-0.31986121 245.44517593 -34.06821177 238.98892809 -61.51953125 222.04882812 C-86.95898478 205.09926348 -104.89774571 180.57833195 -113.18359375 151.10742188 C-113.66505859 149.40005859 -113.66505859 149.40005859 -114.15625 147.65820312 C-120.82626163 118.96164145 -116.63426671 85.43378271 -101.18359375 60.10742188 C-95.43582538 51.69900325 -89.16367352 43.53014085 -82.18359375 36.10742188 C-81.65507812 35.50414062 -81.1265625 34.90085937 -80.58203125 34.27929688 C-59.99184194 11.96569965 -29.57708874 1.45504462 0 0 Z " fill="#FE5245" transform="translate(388.18359375,271.892578125)"/>
<path d="M0 0 C15.2343675 0 15.2343675 0 22.8125 1.625 C23.66215332 1.80248779 24.51180664 1.97997559 25.38720703 2.1628418 C33.60198858 3.97476769 41.30000778 6.64018907 49 10 C50.75183594 10.75216797 50.75183594 10.75216797 52.5390625 11.51953125 C80.37673205 24.43294229 102.31205063 49.2625512 113.42578125 77.640625 C114.76264898 81.41067088 115.9174456 85.14959589 117 89 C117.32097656 90.13824219 117.64195312 91.27648437 117.97265625 92.44921875 C125.33775406 124.13626746 118.88150621 157.88461802 101.94140625 185.3359375 C83.47944332 213.04533641 55.75522704 232.1599754 23 238.8125 C15.06027464 240.3882569 8.53173073 240 0 240 C0 220.2 0 200.4 0 180 C4.95 180 9.9 180 15 180 C14.67 136.44 14.34 92.88 14 48 C10.04 50.64 6.08 53.28 2 56 C1.34 56 0.68 56 0 56 C0 37.52 0 19.04 0 0 Z " fill="#ED2626" transform="translate(392,272)"/>
<path d="M0 0 C109.56 0 219.12 0 332 0 C332 9.9 332 19.8 332 30 C222.44 30 112.88 30 0 30 C0 20.1 0 10.2 0 0 Z " fill="#E7E7E7" transform="translate(90,152)"/>
<path d="M0 0 C109.56 0 219.12 0 332 0 C332 9.9 332 19.8 332 30 C222.44 30 112.88 30 0 30 C0 20.1 0 10.2 0 0 Z " fill="#E7E7E7" transform="translate(90,92)"/>
<path d="M0 0 C69.96 0 139.92 0 212 0 C212 9.9 212 19.8 212 30 C142.04 30 72.08 30 0 30 C0 20.1 0 10.2 0 0 Z " fill="#E7E7E7" transform="translate(90,212)"/>
<path d="M0 0 C54.45 0 108.9 0 165 0 C165 9.9 165 19.8 165 30 C110.55 30 56.1 30 0 30 C0 20.1 0 10.2 0 0 Z " fill="#D3D3D8" transform="translate(257,152)"/>
<path d="M0 0 C54.45 0 108.9 0 165 0 C165 9.9 165 19.8 165 30 C110.55 30 56.1 30 0 30 C0 20.1 0 10.2 0 0 Z " fill="#D3D3D8" transform="translate(257,92)"/>
<path d="M0 0 C0 43.89 0 87.78 0 133 C-9.9 133 -19.8 133 -30 133 C-30.33 107.92 -30.66 82.84 -31 57 C-37.27 61.29 -43.54 65.58 -50 70 C-54.1564875 67.92175625 -55.01993777 66.95083639 -57.453125 63.2109375 C-58.071875 62.26992188 -58.690625 61.32890625 -59.328125 60.359375 C-59.96234375 59.37453125 -60.5965625 58.3896875 -61.25 57.375 C-62.22453125 55.88613281 -62.22453125 55.88613281 -63.21875 54.3671875 C-64.82093803 51.91678227 -66.41422993 49.46104923 -68 47 C-66.51422816 42.47724892 -62.92782031 40.81225388 -59.046875 38.5390625 C-57.58481302 37.65429458 -56.12459944 36.76646675 -54.66601562 35.87597656 C-53.90039307 35.40889282 -53.13477051 34.94180908 -52.34594727 34.46057129 C-48.42021368 32.01643546 -44.59284655 29.43071319 -40.765625 26.8359375 C-39.98650757 26.30840881 -39.20739014 25.78088013 -38.40466309 25.23736572 C-36.0182398 23.61882544 -33.63401578 21.99708375 -31.25 20.375 C-29.6421159 19.28357595 -28.03404352 18.19242922 -26.42578125 17.1015625 C-25.63997681 16.5685553 -24.85417236 16.0355481 -24.04455566 15.48638916 C-23.27188354 14.96236511 -22.49921143 14.43834106 -21.703125 13.8984375 C-20.94882202 13.38682068 -20.19451904 12.87520386 -19.4173584 12.3480835 C-14.92331129 9.30094313 -10.42834634 6.25530566 -5.921875 3.2265625 C-4.9844043 2.59572754 -4.04693359 1.96489258 -3.08105469 1.31494141 C-1 0 -1 0 0 0 Z " fill="#E7E6E6" transform="translate(407,319)"/>
<path d="M0 0 C0 43.89 0 87.78 0 133 C-4.95 133 -9.9 133 -15 133 C-15.47876868 117.13673123 -15.87651603 101.27417763 -16.16833401 85.40649605 C-16.30586539 78.03787886 -16.47146895 70.67193548 -16.7043457 63.30566406 C-16.90736509 56.88153562 -17.05651212 50.4587401 -17.14229447 44.03193843 C-17.18953914 40.63087711 -17.26281307 37.23509073 -17.40075493 33.83639908 C-18.16935788 13.07354262 -18.16935788 13.07354262 -14.48137283 7.84841156 C-10.9917113 4.50631529 -5.08092709 0 0 0 Z " fill="#D3D2D7" transform="translate(407,319)"/>
<path d="M0 0 C14.85 0 29.7 0 45 0 C45 9.9 45 19.8 45 30 C30.15 30 15.3 30 0 30 C0 20.1 0 10.2 0 0 Z " fill="#D3D3D8" transform="translate(257,212)"/>
</svg>
