<?xml version="1.0" encoding="UTF-8"?>
<svg xmlns="http://www.w3.org/2000/svg" xmlns:xlink="http://www.w3.org/1999/xlink" width="px" height="px" viewBox="0 0 150 140" version="1.1">
<g id="surface1">
<path style=" stroke:none;fill-rule:nonzero;fill:rgb(78.039216%,22.745098%,38.823529%);fill-opacity:1;" d="M 97.40625 7.214844 C 98.113281 7.808594 98.8125 8.414062 99.5 9.03125 C 100.0625 9.523438 100.0625 9.523438 100.632812 10.027344 C 107.070312 16.050781 111.09375 24.671875 111.609375 33.480469 C 111.746094 37.867188 111.332031 41.945312 110 46.164062 C 109.835938 46.332031 109.671875 46.496094 109.5 46.667969 C 106.464844 46.421875 103.664062 45.730469 100.75 44.878906 C 100.132812 44.703125 100.132812 44.703125 99.503906 44.523438 C 98.5 44.238281 97.5 43.945312 96.5 43.65625 C 96.511719 43.371094 96.519531 43.085938 96.53125 42.792969 C 96.796875 34.402344 96.421875 27.492188 90.515625 21 C 86.011719 16.605469 80.582031 14.917969 74.425781 14.929688 C 68.703125 15.03125 63.863281 17.304688 59.625 21.136719 C 55.128906 25.9375 53.683594 32.277344 53.84375 38.664062 C 54.054688 41.335938 54.699219 43.34375 56 45.664062 C 56.21875 46.054688 56.4375 46.445312 56.660156 46.847656 C 59.890625 52.125 65.058594 55.476562 70.5 58.207031 C 70.164062 59.9375 69.488281 61.25 68.609375 62.769531 C 68.316406 63.28125 68.023438 63.792969 67.71875 64.316406 C 67.398438 64.867188 67.078125 65.417969 66.75 65.984375 C 66.253906 66.84375 66.253906 66.84375 65.75 67.714844 C 62.855469 72.710938 59.875 77.652344 56.863281 82.582031 C 52.753906 88.546875 52.753906 88.546875 51 95.339844 C 51.339844 96.722656 51.738281 98.078125 52.140625 99.441406 C 53.230469 103.742188 52.390625 107.445312 50.5 111.398438 C 48.167969 114.945312 44.570312 117.328125 40.5 118.421875 C 34.839844 118.960938 30.8125 118.371094 26.375 114.816406 C 22.957031 111.625 21.039062 107.363281 20.84375 102.679688 C 20.964844 98.433594 22.558594 94.871094 25.5 91.828125 C 28.5625 89.3125 31.917969 87.375 35.921875 87.253906 C 37.761719 87.023438 37.945312 86.871094 39.269531 85.375 C 39.644531 84.746094 40 84.105469 40.34375 83.460938 C 40.640625 82.949219 40.640625 82.949219 40.941406 82.425781 C 41.570312 81.332031 42.175781 80.230469 42.78125 79.125 C 43.191406 78.40625 43.601562 77.683594 44.011719 76.964844 C 44.808594 75.5625 45.601562 74.15625 46.386719 72.746094 C 47.886719 70.054688 49.441406 67.390625 51 64.730469 C 50.816406 64.484375 50.632812 64.238281 50.441406 63.984375 C 49.945312 63.320312 49.449219 62.648438 48.953125 61.980469 C 48.292969 61.105469 47.613281 60.242188 46.921875 59.390625 C 44.6875 56.582031 42.96875 53.871094 41.53125 50.585938 C 41.320312 50.105469 41.320312 50.105469 41.105469 49.613281 C 37.566406 41.085938 37.921875 30.59375 41.398438 22.109375 C 43.585938 17.132812 46.648438 13.3125 50.5 9.535156 C 50.816406 9.199219 51.132812 8.867188 51.460938 8.523438 C 63.605469 -3.425781 84.421875 -2.519531 97.40625 7.214844 Z M 97.40625 7.214844 "/>
<path style=" stroke:none;fill-rule:nonzero;fill:rgb(29.019608%,29.019608%,29.019608%);fill-opacity:1;" d="M 28.5 67.742188 C 29.65625 72.046875 30.808594 76.351562 32 80.789062 C 31.03125 81.367188 30.0625 81.949219 29.0625 82.542969 C 22.691406 86.453125 17.089844 90.847656 15 98.351562 C 13.726562 104.183594 15.109375 110.109375 18.140625 115.179688 C 21.410156 119.890625 26.238281 123.175781 31.910156 124.320312 C 38.523438 125.070312 44.8125 123.996094 50.25 120.015625 C 54.882812 115.964844 56.792969 109.808594 57.210938 103.828125 C 57.308594 102.132812 57.367188 100.433594 57.414062 98.734375 C 57.5 96.847656 57.5 96.847656 58 96.34375 C 59.097656 96.300781 60.191406 96.296875 61.289062 96.304688 C 61.804688 96.304688 61.804688 96.304688 62.332031 96.308594 C 63.082031 96.3125 63.832031 96.316406 64.582031 96.320312 C 65.773438 96.332031 66.960938 96.335938 68.152344 96.339844 C 71.539062 96.351562 74.921875 96.371094 78.308594 96.390625 C 80.375 96.40625 82.445312 96.414062 84.515625 96.417969 C 85.300781 96.421875 86.085938 96.429688 86.871094 96.433594 C 94.644531 96.632812 94.644531 96.632812 101.5 93.332031 C 101.890625 92.929688 102.285156 92.527344 102.6875 92.109375 C 106.113281 88.753906 109.304688 87.617188 114.03125 87.675781 C 118.445312 88.09375 122.554688 90.492188 125.378906 93.886719 C 127.984375 97.554688 129.070312 101.378906 128.5 105.878906 C 127.335938 110.773438 124.710938 114.636719 120.5 117.417969 C 116.574219 119.460938 111.9375 119.644531 107.65625 118.59375 C 104.484375 117.3125 101.226562 115.042969 99.816406 111.863281 C 98.300781 110.171875 98 110.160156 95.839844 110.007812 C 94.730469 109.984375 93.617188 109.980469 92.507812 109.992188 C 91.921875 109.984375 91.335938 109.976562 90.734375 109.96875 C 88.863281 109.949219 86.996094 109.953125 85.125 109.957031 C 83.855469 109.945312 82.589844 109.9375 81.320312 109.925781 C 78.214844 109.898438 75.109375 109.890625 72 109.890625 C 71.851562 110.511719 71.851562 110.511719 71.699219 111.140625 C 71.5 111.953125 71.5 111.953125 71.296875 112.78125 C 71.167969 113.316406 71.039062 113.855469 70.902344 114.40625 C 68.757812 122.421875 62.714844 129.835938 55.710938 134.113281 C 51.828125 136.339844 47.851562 137.917969 43.5 138.996094 C 43.117188 139.09375 42.734375 139.1875 42.34375 139.285156 C 32.636719 140.816406 23.226562 138.519531 15.128906 133.054688 C 7.523438 127.25 2.179688 119.441406 0.210938 110.015625 C -1.097656 99.921875 0.644531 90.289062 6.492188 81.867188 C 7.453125 80.628906 8.453125 79.449219 9.5 78.28125 C 9.757812 77.972656 10.019531 77.667969 10.285156 77.351562 C 14.441406 72.761719 22.109375 67.742188 28.5 67.742188 Z M 28.5 67.742188 "/>
<path style=" stroke:none;fill-rule:nonzero;fill:rgb(29.411765%,29.411765%,29.411765%);fill-opacity:1;" d="M 84.628906 24.324219 C 87.621094 26.738281 89.785156 29.964844 91 33.621094 C 91.34375 37.597656 91.046875 40.769531 89.339844 44.390625 C 88.761719 46.5625 89.796875 48.277344 90.792969 50.210938 C 91.101562 50.746094 91.40625 51.277344 91.726562 51.828125 C 91.890625 52.121094 92.058594 52.417969 92.234375 52.71875 C 92.765625 53.652344 93.304688 54.582031 93.84375 55.511719 C 94.195312 56.121094 94.546875 56.734375 94.898438 57.347656 C 97.082031 61.15625 99.289062 64.953125 101.5 68.746094 C 101.773438 68.699219 102.046875 68.648438 102.328125 68.597656 C 113.691406 66.648438 124.015625 66.652344 134 73.261719 C 135.738281 74.523438 137.386719 75.859375 139 77.277344 C 139.320312 77.554688 139.636719 77.832031 139.96875 78.117188 C 146.175781 83.921875 149.695312 92.8125 150.160156 101.214844 C 150.511719 111.726562 147.660156 121.097656 140.46875 128.972656 C 133.894531 135.816406 124.980469 139.902344 115.539062 140.199219 C 105.152344 140.332031 96.902344 137.027344 88.9375 130.457031 C 88 129.460938 88 129.460938 88 127.957031 C 89.253906 126.742188 90.617188 125.707031 91.988281 124.628906 C 92.933594 123.886719 93.859375 123.125 94.761719 122.328125 C 95.808594 121.421875 96.800781 120.617188 98 119.929688 C 99.46875 120.054688 99.46875 120.054688 101 120.933594 C 107.550781 124.363281 113.808594 126.300781 121.203125 124.539062 C 126.882812 122.414062 130.882812 118.3125 133.5 112.902344 C 133.753906 112.40625 133.753906 112.40625 134.015625 111.898438 C 135.929688 107.359375 135.738281 100.925781 134.1875 96.3125 C 131.816406 90.890625 128.042969 86.121094 122.539062 83.671875 C 116.402344 81.464844 110.421875 82.261719 104.5 84.804688 C 102.773438 85.71875 101.085938 86.664062 99.40625 87.667969 C 98 88.316406 98 88.316406 97.011719 88.265625 C 95.527344 87.601562 95.171875 86.667969 94.410156 85.242188 C 94.113281 84.695312 93.816406 84.152344 93.511719 83.589844 C 93.195312 82.988281 92.878906 82.390625 92.5625 81.792969 C 92.230469 81.179688 91.898438 80.566406 91.566406 79.953125 C 90.882812 78.6875 90.199219 77.421875 89.519531 76.152344 C 86.910156 71.304688 84.207031 66.511719 81.5 61.71875 C 81.289062 61.34375 81.074219 60.964844 80.855469 60.578125 C 80.328125 59.648438 79.792969 58.722656 79.25 57.800781 C 78.976562 57.332031 78.703125 56.863281 78.421875 56.378906 C 76.519531 53.941406 74.234375 52.996094 71.3125 52.25 C 66.726562 50.894531 64.199219 48.835938 61.613281 44.832031 C 59.503906 40.785156 59.285156 36.082031 60.5625 31.707031 C 62.1875 27.554688 65.023438 24.488281 69.03125 22.597656 C 74.34375 20.542969 79.863281 21.203125 84.628906 24.324219 Z M 84.628906 24.324219 "/>
</g>
</svg>
