<?xml version="1.0" encoding="UTF-8"?>
<svg version="1.1" xmlns="http://www.w3.org/2000/svg" width="300" height="279">
<path d="M0 0 C1.41570092 1.18499411 2.81164241 2.39396952 4.1875 3.625 C5.30898438 4.60726563 5.30898438 4.60726563 6.453125 5.609375 C19.32809074 17.60849273 27.3736253 34.78913011 28.40625 52.34375 C28.68076412 61.0880805 27.85133268 69.21943472 25.1875 77.625 C24.8575 77.955 24.5275 78.285 24.1875 78.625 C18.11965504 78.13984573 12.51856395 76.75768716 6.6875 75.0625 C5.45386719 74.71155273 5.45386719 74.71155273 4.1953125 74.35351562 C2.19120942 73.78257928 0.18913409 73.20453295 -1.8125 72.625 C-1.79155273 72.05692627 -1.77060547 71.48885254 -1.74902344 70.90356445 C-1.21503927 54.18614227 -1.9652862 40.41190816 -13.77734375 27.47265625 C-22.79124262 18.71955734 -33.6517299 15.35763168 -45.96166992 15.37841797 C-57.40512226 15.57968818 -67.08418549 20.11020011 -75.5625 27.75 C-84.55450215 37.31595973 -87.44473495 49.95042318 -87.125 62.6796875 C-86.70349014 68.00124954 -85.41619532 71.9998021 -82.8125 76.625 C-82.37679687 77.40359375 -81.94109375 78.1821875 -81.4921875 78.984375 C-75.03280785 89.50292765 -64.69492576 96.18378712 -53.8125 101.625 C-54.48134891 105.07337671 -55.83983192 107.68725956 -57.59375 110.71875 C-58.18043457 111.73590088 -58.76711914 112.75305176 -59.37158203 113.80102539 C-60.01208496 114.89793701 -60.65258789 115.99484863 -61.3125 117.125 C-62.3022583 118.83127563 -62.3022583 118.83127563 -63.31201172 120.57202148 C-69.10333361 130.52718825 -75.06620957 140.37810573 -81.08789062 150.1953125 C-89.30445696 162.08795698 -89.30445696 162.08795698 -92.8125 175.625 C-92.13584565 178.37842996 -91.33264578 181.08122983 -90.53125 183.80078125 C-88.35003666 192.37152714 -90.03033363 199.74963383 -93.8125 207.625 C-98.47922077 214.6917486 -105.67358039 219.4399206 -113.8125 221.625 C-125.12963723 222.69570825 -133.18621926 221.51876293 -142.0625 214.4375 C-148.90007843 208.07664516 -152.73752807 199.58161561 -153.125 190.25 C-152.8808132 181.78964565 -149.69493359 174.68646417 -143.8125 168.625 C-137.69018431 163.61377123 -130.97388077 159.7512946 -122.96728516 159.50830078 C-119.28617321 159.0476577 -118.92276656 158.7491227 -116.27124023 155.7644043 C-115.52620352 154.50905781 -114.81089949 153.23574219 -114.12109375 151.94921875 C-113.53038841 150.92862114 -113.53038841 150.92862114 -112.92774963 149.8874054 C-111.67522455 147.70972556 -110.46249644 145.5126703 -109.25 143.3125 C-108.43290313 141.87549184 -107.61326237 140.43992703 -106.79101562 139.00585938 C-105.19375449 136.21146272 -103.61136125 133.40954607 -102.04248047 130.59912109 C-99.04117896 125.23034846 -95.93186173 119.92594669 -92.8125 114.625 C-93.18052734 114.13483398 -93.54855469 113.64466797 -93.92773438 113.13964844 C-94.92441655 111.80951204 -95.91646466 110.47590145 -96.90625 109.140625 C-98.2277716 107.39664977 -99.58478876 105.67922609 -100.96875 103.984375 C-105.43808858 98.38239582 -108.8769913 92.98503684 -111.75 86.4375 C-112.17333618 85.47650391 -112.17333618 85.47650391 -112.60522461 84.49609375 C-119.68120151 67.5050803 -118.96591083 46.59591318 -112.01513672 29.68505859 C-107.63802751 19.76906076 -101.513659 12.15502214 -93.8125 4.625 C-93.17957031 3.95984375 -92.54664063 3.2946875 -91.89453125 2.609375 C-67.6018527 -21.20066756 -25.96545336 -19.39533864 0 0 Z " fill="#C73A63" transform="translate(194.8125,14.375)"/>
<path d="M0 0 C2.31 8.58 4.62 17.16 7 26 C5.06125 27.155 3.1225 28.31 1.125 29.5 C-11.61685848 37.28758059 -22.82104031 46.04610099 -27 61 C-29.54633737 72.62534716 -26.78473371 84.42856685 -20.71484375 94.53515625 C-14.18170626 103.92561127 -4.52037083 110.47165255 6.8203125 112.75390625 C20.04893732 114.24746066 32.6221091 112.10370523 43.50390625 104.17578125 C52.76310077 96.10477757 56.58375364 83.83299274 57.42578125 71.91796875 C57.61782742 68.53291885 57.7341872 65.15081339 57.82421875 61.76171875 C58 58 58 58 59 57 C61.1919271 56.91618975 63.38659716 56.90372721 65.58007812 56.91821289 C66.61199783 56.92281273 66.61199783 56.92281273 67.6647644 56.92750549 C69.16477099 56.93467887 70.66476814 56.94407824 72.16474915 56.95540047 C74.54485699 56.97275547 76.92489792 56.98308065 79.30505371 56.99131775 C86.07485304 57.0157881 92.84456342 57.05107086 99.61425781 57.09594727 C103.75214538 57.12288072 107.88997973 57.13982894 112.02793884 57.15081596 C113.60027517 57.15699096 115.17260167 57.16695211 116.74488831 57.18089485 C132.28818733 57.57701655 132.28818733 57.57701655 146 51 C146.78375 50.195625 147.5675 49.39125 148.375 48.5625 C155.22297771 41.87756938 161.60755835 39.60939484 171.05859375 39.72265625 C179.89312124 40.55565951 188.10951688 45.34006577 193.7578125 52.10546875 C198.96636329 59.41505331 201.14246485 67.03382018 200 76 C197.672426 85.7562982 192.4254099 93.45155933 184 99 C176.1488621 103.07096039 166.87818543 103.43537086 158.3125 101.34375 C151.96959069 98.78896708 145.44970884 94.26398407 142.63500977 87.92675781 C139.60254574 84.55853965 139.00195695 84.5321056 134.68066406 84.22705078 C132.45933707 84.18607599 130.23725903 84.17756945 128.015625 84.1953125 C126.84489441 84.18160614 125.67416382 84.16789978 124.46795654 84.15377808 C120.72825014 84.11638413 116.9898673 84.12019976 113.25 84.125 C110.7148229 84.10688004 108.17966344 84.08607958 105.64453125 84.0625 C99.42955742 84.01056067 93.21517084 83.99245198 87 84 C86.70200752 85.23180496 86.70200752 85.23180496 86.397995 86.48849487 C86.00122307 88.1065654 86.00122307 88.1065654 85.59643555 89.75732422 C85.3358989 90.82602753 85.07536224 91.89473083 84.80693054 92.99581909 C80.51596987 108.97095135 68.42720971 123.74442491 54.41796875 132.265625 C46.65452694 136.70403658 38.70422344 139.85425132 30 142 C29.23558594 142.19078125 28.47117187 142.3815625 27.68359375 142.578125 C8.27420857 145.62938206 -10.54339595 141.04774517 -26.7421875 130.15625 C-41.95543198 118.59228846 -52.64025867 103.02687418 -56.578125 84.2421875 C-59.19463342 64.13383572 -55.7085091 44.93209278 -44.015625 28.15234375 C-42.09177786 25.68042388 -40.09358723 23.32901069 -38 21 C-37.48179688 20.38898438 -36.96359375 19.77796875 -36.4296875 19.1484375 C-28.11971374 10.0032905 -12.77823631 0 0 0 Z " fill="#4A4A4A" transform="translate(57,135)"/>
<path d="M0 0 C5.98539161 4.81334724 10.3139647 11.24267535 12.7421875 18.52734375 C13.42872579 26.45067093 12.83510377 32.77532798 9.421875 39.9921875 C8.26262081 44.31607239 10.33392328 47.73874157 12.3269043 51.58837891 C12.94218994 52.65362793 13.55747559 53.71887695 14.19140625 54.81640625 C14.52711136 55.40094574 14.86281647 55.98548523 15.20869446 56.58773804 C16.27730382 58.4455749 17.35335651 60.29897201 18.4296875 62.15234375 C19.13265219 63.37211315 19.8351299 64.59216334 20.53710938 65.8125 C24.9081876 73.40186138 29.32241373 80.96626476 33.7421875 88.52734375 C34.28931396 88.43122803 34.83644043 88.3351123 35.40014648 88.23608398 C58.12327748 84.34726581 78.77351781 84.3591498 98.7421875 97.52734375 C102.2211827 100.04166181 105.51204927 102.70166536 108.7421875 105.52734375 C109.38027344 106.08164063 110.01835937 106.6359375 110.67578125 107.20703125 C123.09656805 118.77025816 130.13069815 136.49210796 131.0625 153.234375 C131.7638243 174.18086444 126.06267387 192.85851366 111.68359375 208.5546875 C98.53294347 222.19385282 80.70356875 230.33580005 61.82275391 230.92797852 C41.04386399 231.19275593 24.54638188 224.60502908 8.62109375 211.5078125 C6.7421875 209.52734375 6.7421875 209.52734375 6.7421875 206.52734375 C9.25197934 204.10668471 11.9735314 202.04732969 14.71875 199.8984375 C16.60651447 198.41798138 18.46258422 196.89504508 20.265625 195.3125 C22.36130888 193.50649256 24.3400799 191.89929849 26.7421875 190.52734375 C29.6796875 190.77734375 29.6796875 190.77734375 32.7421875 192.52734375 C45.84526519 199.36472635 58.36122898 203.22592154 73.15234375 199.71875 C84.5091355 195.48376572 92.5066064 187.30953058 97.7421875 176.52734375 C98.25072266 175.53734375 98.25072266 175.53734375 98.76953125 174.52734375 C102.60456526 165.47878425 102.21629542 152.65843169 99.1171875 143.46484375 C94.37582123 132.660476 86.83110311 123.15814949 75.82421875 118.2734375 C63.55015043 113.87503778 51.58730894 115.46366636 39.7421875 120.52734375 C36.28865444 122.35613773 32.91369079 124.23790858 29.5546875 126.234375 C26.7421875 127.52734375 26.7421875 127.52734375 24.76513672 127.4284668 C21.79516816 126.10549384 21.08622968 124.24423932 19.5625 121.40234375 C18.97025635 120.31518066 18.3780127 119.22801758 17.76782227 118.10791016 C17.13422528 116.91441566 16.50068168 115.72089282 15.8671875 114.52734375 C15.20581666 113.30568039 14.54295497 112.08482304 13.87866211 110.86474609 C12.50638085 108.34203644 11.14000074 105.81626945 9.77783203 103.28808594 C4.56313686 93.62958787 -0.84082149 84.07343214 -6.2578125 74.52734375 C-6.6820752 73.77598145 -7.10633789 73.02461914 -7.54345703 72.25048828 C-8.59882622 70.39523218 -9.672389 68.55262929 -10.7578125 66.71484375 C-11.304375 65.78027344 -11.8509375 64.84570312 -12.4140625 63.8828125 C-16.2162787 59.02532019 -20.79267536 57.13712438 -26.6328125 55.65234375 C-35.80591168 52.94946242 -40.85808693 48.847591 -46.03125 40.87109375 C-50.25110409 32.80767829 -50.68997401 23.43037646 -48.1328125 14.71484375 C-44.88238304 6.43688086 -39.21157735 0.32911544 -31.19921875 -3.44140625 C-20.56972792 -7.53404443 -9.52999631 -6.21593185 0 0 Z " fill="#4B4B4B" transform="translate(169.2578125,48.47265625)"/>
</svg>
